<?xml version="1.0" encoding="utf-8"?>
<!-- Generator: Adobe Illustrator 25.2.1, SVG Export Plug-In . SVG Version: 6.00 Build 0)  -->
<svg version="1.1" id="Layer_1" xmlns="http://www.w3.org/2000/svg" xmlns:xlink="http://www.w3.org/1999/xlink" x="0px" y="0px"
	 viewBox="0 0 500 500" style="enable-background:new 0 0 500 500;" xml:space="preserve">
<style type="text/css">
	.st0{opacity:0.2;}
	.st1{fill:#42CCAE;}
	.st2{fill:#EBEBEB;}
	.st3{fill:#2F55D4;}
	.st4{fill:#189D80;}
	.st5{fill:#FFFFFF;}
	.st6{fill:#E0E0E0;}
	.st7{fill:#F5F5F5;}
	.st8{fill:#F0F0F0;}
	.st9{fill:#455A64;}
	.st10{fill:#37474F;}
	.st11{fill:#263238;}
	.st12{opacity:0.7;fill:#FFFFFF;enable-background:new    ;}
	.st13{fill:#FFA8A7;}
	.st14{fill:#F28F8F;}
</style>
<g id="freepik--Floor--inject-2" class="st0">
	<path class="st1" d="M125.2,389.2c68.9,32.8,180.6,32.9,249.5,0s68.9-86.1,0-118.9s-180.6-32.8-249.5,0S56.3,356.4,125.2,389.2z"/>
</g>
<g id="freepik--Shadow--inject-2">
	<ellipse class="st2" cx="374.5" cy="354" rx="23" ry="11"/>
</g>
<path class="st3" d="M120,355.6l8.1-4.7c4.5-3.7,8-8.6,10-14.1c2.5-6.9,2.2-12.2,0.4-14.8c-2.2-3.2-7.9-2.7-8.2,4.2
	C129.8,339.6,125.9,349,120,355.6z"/>
<path class="st4" d="M120,355.6l8.1-4.7c4.5-3.7,8-8.6,10-14.1c2.5-6.9,2.2-12.2,0.4-14.8c-2.2-3.2-7.9-2.7-8.2,4.2
	C129.8,339.6,125.9,349,120,355.6z"/>
<path class="st5" d="M120,356.1c-0.3,0-0.5-0.2-0.5-0.5c0-0.2,0.1-0.3,0.2-0.4c18.8-13,15.2-31.1,15.1-31.3
	c-0.1-0.3,0.1-0.5,0.4-0.6c0.3-0.1,0.5,0.1,0.6,0.4c0,0.2,3.8,18.9-15.5,32.3C120.2,356.1,120.1,356.1,120,356.1z"/>
<path class="st1" d="M103.7,365c0,0-2.8-2.3-2.2-5.4s2.5-5.4-0.6-9.4s-4-9.4-0.3-12.3c2.8-2.2,7.3,0.9,8.9-5
	c1.2-4.3,0.8-14,6.3-17.1s9,1.6,8.1,8.1c-0.8,5.8-1.8,11.4-1,13c1.6,3,4.4,2.6,4.3,8.1c-0.1,5.1-4.9,9.3-4.9,9.3L103.7,365z"/>
<path class="st5" d="M113,360.1c-0.3,0-0.5-0.2-0.5-0.4c-1.4-11.9,2-32.3,4.8-38.4c0.1-0.3,0.4-0.4,0.6-0.3c0,0,0,0,0.1,0
	c0.2,0.1,0.4,0.4,0.2,0.6c0,0,0,0,0,0c-2.8,6-6.1,26.5-4.7,37.9C113.6,359.8,113.4,360,113,360.1L113,360.1z"/>
<path class="st5" d="M112.7,350.9c-0.1,0-0.2,0-0.2,0c-3.5-1.7-5.7-7.7-5.8-8c-0.1-0.3,0-0.5,0.3-0.6c0.3-0.1,0.5,0,0.6,0.3
	c0,0,0,0,0,0c0,0.1,2.2,5.9,5.3,7.4c0.2,0.1,0.4,0.4,0.2,0.7C113.1,350.7,112.9,350.9,112.7,350.9L112.7,350.9z"/>
<path class="st5" d="M112.7,354.9c-0.2,0-0.4-0.1-0.5-0.3c-0.1-0.3,0-0.5,0.3-0.6c5.8-2.3,9.5-9.3,9.5-9.4c0.1-0.2,0.4-0.3,0.7-0.2
	c0.2,0.1,0.3,0.4,0.2,0.7c-0.2,0.3-3.8,7.4-10,9.8C112.8,354.9,112.7,354.9,112.7,354.9z"/>
<path class="st1" d="M316.8,301.1c0,0-4.4-7.1-4.8-14.8s1.3-10.9,3.6-11.8s2.5,1.9,3.7,3.6s3.6,0.7,4.5-4.5s4.2-14,11-15.7
	c7.5-1.9,3.5,6.9,1.6,10.4s-3.4,8.1-2.1,9.4s3.2-1.1,5,1.1c2.2,2.6-4.7,12.1-8.7,14.4L316.8,301.1z"/>
<path class="st5" d="M322.8,298.1L322.8,298.1c-0.3,0-0.5-0.2-0.5-0.5c0,0,0,0,0,0c0.7-12.4,4.5-24.4,11.2-34.8
	c0.2-0.2,0.5-0.3,0.7-0.1c0,0,0,0,0,0c0.2,0.2,0.3,0.5,0.1,0.7c-6.5,10.3-10.3,22.1-11,34.3C323.3,297.9,323.1,298.1,322.8,298.1
	C322.8,298.1,322.8,298.1,322.8,298.1z"/>
<path class="st5" d="M323.4,292.2c-0.1,0-0.2,0-0.2-0.1c-2.8-1.5-4.4-6.1-4.4-6.3c-0.1-0.3,0-0.5,0.3-0.6c0,0,0,0,0,0
	c0.3-0.1,0.5,0.1,0.6,0.3c0,0,1.5,4.4,4,5.8c0.2,0.1,0.3,0.4,0.2,0.7C323.7,292.1,323.6,292.2,323.4,292.2z"/>
<path class="st5" d="M323.9,289.2c-0.2,0-0.4-0.2-0.5-0.4c-0.1-0.3,0.1-0.5,0.4-0.6c0,0,0,0,0,0c7.2-1.8,9.7-5.6,9.7-5.6
	c0.1-0.2,0.5-0.3,0.7-0.2s0.3,0.5,0.2,0.7l0,0c-0.1,0.2-2.7,4.1-10.3,6.1L323.9,289.2z"/>
<path class="st3" d="M208,285.5c0,0-9.6-2.3-10.1-20.3c-0.5-19.4,2.4-42-9-43.8s-17.6,12-17.5,28.1c0.1,14.1,5.8,44.8,36.6,50.9
	L208,285.5z"/>
<path class="st4" d="M208,285.5c0,0-9.6-2.3-10.1-20.3c-0.5-19.4,2.4-42-9-43.8s-17.6,12-17.5,28.1c0.1,14.1,5.8,44.8,36.6,50.9
	L208,285.5z"/>
<path class="st5" d="M208,298.6L208,298.6c-7-1.3-12.6-5.1-16.8-11.3c-12.4-18.5-8.5-53.1-7.2-59.2c0.1-0.3,0.3-0.4,0.6-0.4
	c0.3,0.1,0.4,0.3,0.4,0.6c-1.3,6-5.2,40.2,7.1,58.4c3.6,5.7,9.4,9.7,16.1,10.9c0.3,0,0.5,0.3,0.4,0.6c0,0,0,0,0,0
	C208.4,298.4,208.2,298.6,208,298.6z"/>
<path class="st1" d="M208,344.7c-9.9,1.3-26,1.3-35.3-6s-7.4-13.6-3.8-16.2s6.7-5.6,0.5-11.5s-16-15.2-19.2-29.3s-1.6-22.9,4.7-25.8
	c6.1-2.8,7.7,1.7,11.4,11s12.1,1.3,19.3,4.2s6.9,8.7,7.3,13.6s2.8,6.3,6.9,6.3s8.1,2.3,8.1,7V344.7z"/>
<path class="st5" d="M208,328.3c0,0-0.1,0-0.1,0c-0.4-0.1-10.7-3.1-25.6-16.8c-15.9-14.6-23.4-36.5-23.5-36.7
	c-0.1-0.3,0.1-0.5,0.3-0.6c0.3-0.1,0.5,0.1,0.6,0.3c0.1,0.2,7.5,21.9,23.2,36.3c14.7,13.5,25.1,16.6,25.2,16.6
	c0.3,0.1,0.4,0.4,0.3,0.6C208.4,328.2,208.2,328.3,208,328.3z"/>
<path class="st5" d="M186.4,315c-0.2,0-0.4-0.1-0.5-0.3c-3.2-8.2-3.9-25.9-4-26.6c0-0.3,0.2-0.5,0.5-0.5c0.3,0,0.5,0.2,0.5,0.5
	c0,0.2,0.8,18.2,3.9,26.3c0.1,0.3,0,0.5-0.3,0.6c0,0,0,0,0,0C186.5,315,186.5,315,186.4,315z"/>
<path class="st5" d="M186.4,326.9c-0.9,0-1.8,0-2.8-0.1c-0.3,0-0.5-0.3-0.4-0.6s0.3-0.5,0.6-0.4c0.1,0,9.4,1.1,13.7-3.3
	c0.2-0.2,0.5-0.2,0.7-0.1c0.2,0.2,0.2,0.5,0.1,0.7c0,0,0,0-0.1,0.1C195,326.3,189.6,326.9,186.4,326.9z"/>
<path class="st6" d="M179.1,137.5l-1.1-6.2l-5.6,3.7c-0.5-1-1.2-1.9-2.1-2.6l2.7-7.2l-5-1.1l-3.7,7c-1.3,0.2-2.6,0.6-3.8,1.2
	L159,127l-5.9,4.7l0.4,6.2c-1.2,1.4-2.3,2.8-3.3,4.3l-4.9-0.2l-3.4,7.7l4.2,1.8c-0.4,1.6-0.7,3.2-0.8,4.9l-5.4,4.9l1.1,6.2l5.6-3.7
	c0.5,1,1.2,1.9,2.1,2.6l-2.6,7.2l5,1.1l5.2-5.1c1.2-0.2,0.9-2.5,2.2-3.1l1.6,5.3l5.9-4.7l-0.1-2.4c1.2-1.3,5.7-4.3,6.7-5.8l1.2-2
	l3.4-7.7l-1.6-2.9l-1.8-3.8L179.1,137.5z M161,158c-4.6,3.6-6,4.4-6.8-0.4s1.8-12.1,6.4-15.7s6.3-3.8,7.1,0.9S165.6,154.5,161,158z"
	/>
<polygon class="st7" points="168.1,124 174.6,127.8 170.9,134.8 164.4,131 "/>
<polygon class="st7" points="184.6,135 179,138.7 172.5,134.9 178.1,131.3 "/>
<polygon class="st6" points="183.7,152.8 179.5,151 173,147.3 177.2,149.1 "/>
<polygon class="st6" points="146,173.6 152.5,177.4 155.1,170.1 148.6,166.4 "/>
<polygon class="st6" points="166.5,175.5 160,171.8 158.4,166.5 164.9,170.2 "/>
<path class="st2" d="M185.6,141.2l-1.1-6.2l-5.6,3.7c-0.5-1-1.2-1.9-2.1-2.6l2.7-7.2l-4.9-1.1l-3.7,7c-1.3,0.2-2.6,0.6-3.8,1.2
	l-1.6-5.3l-5.9,4.7l0.4,6.2c-1.2,1.4-2.3,2.8-3.3,4.4l-4.9-0.2l-3.4,7.7l4.2,1.8c-0.4,1.6-0.7,3.2-0.8,4.9l-5.3,4.8l1.1,6.2l5.6-3.7
	c0.5,1,1.2,1.9,2.1,2.6l-2.7,7.2l5,1.1l3.7-7c1.3-0.2,2.6-0.6,3.8-1.2l1.6,5.3l5.9-4.7l-0.4-6.2c1.2-1.4,2.3-2.8,3.3-4.3l4.9,0.2
	l3.4-7.7l-4.3-1.8c0.4-1.6,0.7-3.2,0.8-4.9L185.6,141.2z M167.5,161.8c-4.6,3.6-8.9,2.6-9.7-2.2s2.2-11.6,6.8-15.1s8.9-2.6,9.7,2.2
	S172.1,158.2,167.5,161.8z"/>
<polygon class="st7" points="165.5,130.7 159,127 153.1,131.7 159.6,135.4 "/>
<polygon class="st6" points="153.1,131.7 153.5,137.9 160,141.6 159.6,135.4 "/>
<polygon class="st7" points="156.7,145.9 150.2,142.2 145.3,142 151.8,145.7 "/>
<polygon class="st6" points="145.3,142 141.9,149.7 148.4,153.4 151.8,145.7 "/>
<polygon class="st7" points="151.7,160.1 145.2,156.4 139.9,161.3 146.4,165 "/>
<polygon class="st6" points="147.5,171.2 141,167.5 139.9,161.3 146.4,165 "/>
<polygon class="st7" points="174.6,127.8 168.1,124 173.1,125.2 179.5,128.9 "/>
<path class="st6" d="M150.1,109.2v-9.3l-7.4,3.3c-0.4-1.6-1.1-3.1-2-4.4l4.7-9.4l-5.7-3.3l-5.8,8.8c-1.6-0.1-3.3,0-4.8,0.5l-0.8-8.1
	l-8.1,4.7l-0.8,9c-1.8,1.6-3.4,3.3-4.8,5.1l-5.8-2l-5.7,9.9l4.7,4c-0.9,2.2-1.5,4.4-2,6.7l-7.4,5.2v9.3l7.4-3.3
	c0.4,1.6,1.1,3.1,2,4.4l-4.6,9.4l5.7,3.3l5.8-8.8c1.6,0.1,3.3,0,4.8-0.5l0.8,8.1l8.1-4.7l0.8-9c2.5-0.9,4.7-2.5,6.5-4.5l4.2,1.5
	l5.7-9.9l-3.5-3c0.8-2.5,1-5.1,0.8-7.7L150.1,109.2z M124.2,132.5c-6.2,3.6-10,1-10-6.1s5.1-15.9,11.3-19.5c6.2-3.6,9.9-1,9.9,6.2
	S130.4,128.9,124.2,132.5z"/>
<polygon class="st7" points="146.1,89.9 139.6,86.1 133.8,94.9 140.3,98.6 "/>
<polygon class="st7" points="156.6,103.6 150.1,99.9 142.7,103.2 149.2,107 "/>
<polygon class="st6" points="126.6,155.5 120.1,151.8 119.3,143.7 125.8,147.4 "/>
<polygon class="st6" points="103,149.6 109.5,153.4 114.1,144 107.6,140.2 "/>
<path class="st2" d="M156.6,113v-9.3l-7.4,3.3c-0.4-1.6-1.1-3.1-2-4.4l4.7-9.4l-5.7-3.3l-5.8,8.8c-1.6-0.1-3.3,0-4.8,0.5l-0.8-8.1
	l-8.1,4.7l-0.8,9c-1.8,1.6-3.4,3.3-4.8,5.1l-5.8-2l-5.7,9.9l4.7,4c-0.9,2.2-1.5,4.4-2,6.7l-7.4,5.2v9.3l7.4-3.3
	c0.4,1.6,1.1,3.1,2,4.4l-4.7,9.4l5.7,3.3l5.8-8.8c1.6,0.1,3.3,0,4.8-0.5l0.8,8.1l8.1-4.7l0.8-9c1.8-1.6,3.4-3.3,4.8-5.1l5.8,2
	l5.7-9.9l-4.7-4c0.9-2.2,1.5-4.4,2-6.7L156.6,113z M130.6,136.3c-6.2,3.6-11.2,0.7-11.2-6.5s5-15.8,11.2-19.4
	c6.2-3.6,11.2-0.7,11.2,6.5S136.8,132.6,130.6,136.3L130.6,136.3z"/>
<polygon class="st8" points="114.5,106 121,109.8 115.2,107.8 108.7,104 "/>
<rect x="103.4" y="107.1" transform="matrix(0.4997 -0.8662 0.8662 0.4997 -41.4259 149.9237)" class="st7" width="11.4" height="7.5"/>
<polygon class="st6" points="103,113.9 109.5,117.6 114.1,121.6 107.6,117.9 "/>
<polygon class="st7" points="105.6,124.6 112.1,128.4 104.7,133.6 98.2,129.8 "/>
<polygon class="st6" points="98.2,129.8 104.7,133.6 104.7,142.9 98.2,139.2 "/>
<polygon class="st7" points="134.7,91 128.2,87.3 120.1,91.9 126.6,95.7 "/>
<path class="st6" d="M217.9,358l94-54.3c0.6-0.2,0.8-0.8,0.6-1.4c-0.1-0.3-0.3-0.5-0.6-0.6l-8.7-5c-1.1-0.5-2.4-0.5-3.5,0l-94,54.2
	c-0.6,0.2-0.8,0.8-0.6,1.4c0.1,0.3,0.3,0.5,0.6,0.6l8.7,5C215.5,358.6,216.8,358.6,217.9,358z"/>
<path class="st9" d="M309.3,94.2l-84.8,48.9c-2.6,1.7-4.2,4.5-4.3,7.5v201.1c0,2.8,1.9,3.9,4.3,2.5l84.8-48.9
	c2.6-1.7,4.2-4.5,4.3-7.5V96.7C313.6,93.9,311.7,92.8,309.3,94.2z"/>
<path class="st10" d="M224.5,143.1l84.8-48.9c2.1-1.2,3.9-0.5,4.3,1.7c-0.4-2.7-2-5.2-4.3-6.7l-3.5-2c-2.7-1.4-5.9-1.4-8.7,0
	l-84.8,48.9c-1.3,0.8-2.3,1.9-3.1,3.2l12.2,7C222.2,145,223.3,143.9,224.5,143.1z"/>
<path class="st11" d="M208,344.7c0.2,3,1.8,5.8,4.3,7.5l3.5,2c2.5,1.2,5.4,1.4,7.9,0.3c-2,0.8-3.6-0.4-3.6-2.8v-201
	c0.1-1.5,0.5-3,1.3-4.3l-12.2-7c-0.8,1.3-1.2,2.7-1.3,4.2V344.7z"/>
<path class="st5" d="M226.9,169.9l80.1-46.2c1.4-0.8,2.6-0.2,2.6,1.5V274c-0.1,1.8-1.1,3.5-2.6,4.5l-80.1,46.2
	c-1.4,0.8-2.6,0.2-2.6-1.5V174.4C224.4,172.6,225.3,170.9,226.9,169.9z"/>
<path class="st10" d="M266.9,126.3c-0.9,0.6-1.5,1.6-1.5,2.6c0,1,0.7,1.4,1.5,0.9c0.9-0.6,1.5-1.6,1.5-2.6
	C268.4,126.2,267.8,125.8,266.9,126.3z"/>
<path class="st10" d="M266.9,308.7c-3.5,2.3-5.8,6.2-6,10.4c0,3.8,2.7,5.4,6,3.5c3.5-2.3,5.8-6.2,6-10.4
	C272.9,308.4,270.2,306.8,266.9,308.7z"/>
<path class="st10" d="M252.5,141.8c-1.8,1.2-2.9,3.1-3,5.3c0,1.9,1.4,2.7,3,1.8c1.8-1.2,2.9-3.1,3.1-5.3
	C255.6,141.6,254.2,140.8,252.5,141.8z"/>
<path class="st10" d="M260,141.1c0,1.3,1,1.8,2.2,1.1l20-11.6c1.3-0.8,2.1-2.1,2.2-3.6c0-1.3-1-1.8-2.2-1.1l-20,11.6
	C260.9,138.3,260.1,139.6,260,141.1z"/>
<path class="st10" d="M214.8,176.4c1.4,0.9,2.3,2.5,2.4,4.2c0,1.6-1.1,2.2-2.4,1.4c-1.4-0.9-2.3-2.5-2.4-4.2
	C212.3,176.2,213.4,175.6,214.8,176.4z"/>
<path class="st10" d="M214.8,195.1c1.4,0.9,2.3,2.5,2.4,4.2c0,1.6-1.1,2.2-2.4,1.4c-1.4-0.9-2.3-2.5-2.4-4.2
	C212.3,195,213.4,194.4,214.8,195.1z"/>
<path class="st9" d="M214,176.8c1.4,0.9,2.3,2.5,2.4,4.2c0,1.6-1.1,2.2-2.4,1.4c-1.4-0.9-2.3-2.5-2.4-4.2
	C211.6,176.6,212.7,176,214,176.8z"/>
<path class="st9" d="M214,195.5c1.4,0.9,2.3,2.5,2.4,4.2c0,1.6-1.1,2.2-2.4,1.4c-1.4-0.9-2.4-2.5-2.4-4.2
	C211.6,195.4,212.7,194.8,214,195.5z"/>
<path class="st5" d="M325.8,129.9c0-1.7-1.2-2.3-2.6-1.5l-9.6,5.5l-70.5,40.7c-1.5,1-2.5,2.7-2.6,4.5v148.8c0,1.7,1.2,2.3,2.6,1.5
	l70.5-40.7l9.6-5.5c1.5-1,2.5-2.7,2.6-4.5V129.9z"/>
<path class="st1" d="M326.8,129.9c0.2-1.4-0.8-2.7-2.2-2.9c-0.7-0.1-1.3,0.1-1.9,0.5l-9.1,5.3l0,0l-70.9,41c-1.9,1.2-3,3.2-3.1,5.4
	v148.7c-0.1,1,0.4,2,1.3,2.5c0.4,0.2,0.8,0.3,1.2,0.3c0.6,0,1.2-0.2,1.7-0.5l71-41l0,0l9.1-5.3c1.8-1.2,3-3.2,3.1-5.4L326.8,129.9z
	 M313.6,287.6L313.6,287.6l-0.8,0.5l0,0l-70.1,40.5c-0.2,0.2-0.5,0.2-0.8,0.2c-0.1-0.1-0.3-0.4-0.3-0.8V179.1
	c0.1-1.5,0.9-2.8,2.1-3.6l70-40.5l0,0l10-5.8c0.2-0.2,0.5-0.2,0.8-0.2c0.1,0.1,0.3,0.4,0.3,0.8v148.8c-0.1,1.5-0.9,2.8-2.1,3.6
	L313.6,287.6L313.6,287.6z"/>
<path class="st4" d="M283.2,164.5c9-5.2,16.2-1,16.2,9.4s-7.3,23-16.2,28.1s-16.2,1-16.2-9.4S274.2,169.6,283.2,164.5z"/>
<path class="st3" d="M283.2,172.6c2.9-1.7,5.3-0.3,5.3,3c-0.2,3.7-2.2,7.1-5.3,9.1c-2.9,1.7-5.3,0.3-5.3-3
	C278.1,178,280.1,174.6,283.2,172.6z"/>
<path class="st3" d="M293.4,190.5c0-5.5-3.9-7.8-8.7-5l-3,1.7c-4.8,2.8-8.7,9.5-8.7,15v1.5c2.8,0.9,6.2,0.4,10-1.8
	c4.2-2.6,7.7-6,10.3-10.2L293.4,190.5z"/>
<path class="st12" d="M283.2,172.6c2.9-1.7,5.3-0.3,5.3,3c-0.2,3.7-2.2,7.1-5.3,9.1c-2.9,1.7-5.3,0.3-5.3-3
	C278.1,178,280.1,174.6,283.2,172.6z"/>
<path class="st12" d="M293.4,190.5c0-5.5-3.9-7.8-8.7-5l-3,1.7c-4.8,2.8-8.7,9.5-8.7,15v1.5c2.8,0.9,6.2,0.4,10-1.8
	c4.2-2.6,7.7-6,10.3-10.2L293.4,190.5z"/>
<path class="st3" d="M251.7,224.8l20.9-12.1c1-0.6,1.7-0.1,1.7,1v0.7c-0.1,1.2-0.7,2.3-1.7,3l-20.9,12.1c-0.9,0.6-1.7,0.1-1.7-1
	v-0.7C250.1,226.6,250.7,225.5,251.7,224.8z"/>
<path class="st1" d="M251.7,224.8l20.9-12.1c1-0.6,1.7-0.1,1.7,1v0.7c-0.1,1.2-0.7,2.3-1.7,3l-20.9,12.1c-0.9,0.6-1.7,0.1-1.7-1
	v-0.7C250.1,226.6,250.7,225.5,251.7,224.8z"/>
<path class="st3" d="M250.9,239.4l63.3-36.5c0.5-0.3,0.9-0.1,0.9,0.5v7.4c0,0.6-0.4,1.2-0.9,1.5l-63.3,36.5
	c-0.5,0.3-0.9,0.1-0.9-0.5v-7.4C250,240.3,250.4,239.7,250.9,239.4z"/>
<path class="st4" d="M250.9,239.4l63.3-36.5c0.5-0.3,0.9-0.1,0.9,0.5v7.4c0,0.6-0.4,1.2-0.9,1.5l-63.3,36.5
	c-0.5,0.3-0.9,0.1-0.9-0.5v-7.4C250,240.3,250.4,239.7,250.9,239.4z"/>
<path class="st3" d="M251.7,257.7l20.9-12.1c1-0.6,1.7-0.1,1.7,1v0.7c-0.1,1.2-0.7,2.3-1.7,3l-20.9,12.1c-0.9,0.6-1.7,0.1-1.7-1
	v-0.7C250.1,259.5,250.7,258.3,251.7,257.7z"/>
<path class="st1" d="M251.7,257.7l20.9-12.1c1-0.6,1.7-0.1,1.7,1v0.7c-0.1,1.2-0.7,2.3-1.7,3l-20.9,12.1c-0.9,0.6-1.7,0.1-1.7-1
	v-0.7C250.1,259.5,250.7,258.3,251.7,257.7z"/>
<path class="st3" d="M250.9,272.2l63.3-36.5c0.5-0.3,0.9-0.1,0.9,0.5v7.4c0,0.6-0.4,1.2-0.9,1.5l-63.3,36.5
	c-0.5,0.3-0.9,0.1-0.9-0.5v-7.4C250,273.1,250.4,272.6,250.9,272.2z"/>
<path class="st4" d="M250.9,272.2l63.3-36.5c0.5-0.3,0.9-0.1,0.9,0.5v7.4c0,0.6-0.4,1.2-0.9,1.5l-63.3,36.5
	c-0.5,0.3-0.9,0.1-0.9-0.5v-7.4C250,273.1,250.4,272.6,250.9,272.2z"/>
<path class="st3" d="M276.1,276.4l25-14.4c1-0.6,1.7-0.1,1.7,1v7.7c-0.1,1.2-0.7,2.3-1.7,3l-25,14.4c-1,0.5-1.7,0.1-1.7-1v-7.7
	C274.4,278.2,275.1,277.1,276.1,276.4z"/>
<path class="st1" d="M276.1,276.4l25-14.4c1-0.6,1.7-0.1,1.7,1v7.7c-0.1,1.2-0.7,2.3-1.7,3l-25,14.4c-1,0.5-1.7,0.1-1.7-1v-7.7
	C274.4,278.2,275.1,277.1,276.1,276.4z"/>
<path class="st13" d="M335.3,243.9c0,0-12.3-16.9-13-19c-0.6-1.5,0-3.8,0.2-4.8s0.3-3.4,0.5-4c0.3-1.1-1.2-0.9-2,0.1
	s-1.1,3.1-1.5,3.5s-3.7-4.4-5.4-6.6s-2.8-3.5-3.8-2.7c-0.8,0.6-0.2,1.9,1,3.8c0.7,1,1.4,2.1,2,3.1c0.2,0.4-0.8,0.4-1.4,1.3
	c-0.4,0.7,0,1.7-0.6,2.2c-0.8,0.6-1,1.6-0.5,2.5c1.1,1.7,2.5,3.3,4.2,4.5c1.8,1.3,2.6,1.7,3.7,3.4s10.9,19.4,11.5,20.5
	s1.9,3.2,3.9,3.3s17.7-13.5,18.5-14.2c2.6-2.2,3.4-2.5,3.9-0.5c0.2,0.7,0.3,1.4,0.3,2.1c0.3,2.5,2,11.3,2,11.3s8,3.9,14.6,2
	s8.8-4.7,8.8-4.7l-3.3-5.4c0.9-2.2,5-11.2,6.3-17.4l-20.6-3.3c-0.4-0.1-1.1-0.3-2-0.5c-1.1-0.3-4-1.3-6.2,0.6
	C349.4,231,335.3,243.8,335.3,243.9"/>
<path class="st10" d="M376.1,347.8l-3.7,5.1c1.7,0.8,3.5,1.2,5.4,1.1c3.3,0.1,4.2-1,4.3-1.2c0.6-1.2-0.3-3.4-0.5-5.2L376.1,347.8z"
	/>
<path class="st10" d="M372.7,350.5c0,0-4.5-0.3-7.6-0.7s-5.5,1.1-4.8,2.4s2.4,2.3,5.1,3.2c2.3,0.8,5,1.3,7.4,2s4,1.6,5.4,1.1
	c1.5-0.5,2.2-1.1,2.1-2.3c-0.3-1.6-0.7-3.2-1.2-4.7L372.7,350.5z"/>
<path class="st14" d="M382.1,342.6c0,0-0.6,4.7-0.6,5.7s-4.5,1.3-5.4-0.5l-0.1-5.7L382.1,342.6z"/>
<path class="st13" d="M377.6,345.5l1.6,7.1c0,0,0.1,0.9-3.5,1.4s-9.5-1.9-10.5-2.4s-1.1-1.5,2.5-1.3s4.9,0.2,4.9,0.2l-1.2-3.1
	L377.6,345.5z"/>
<path class="st14" d="M385.2,228l2.5-0.7c0,0,5.3,16.9,5.9,18.5s1.3,3.4,0.1,5.4c-1.4,2.4-8.6,12-8.6,12l-4.6-4.5l5.2-9.5l-4.6-9.3
	L385.2,228z"/>
<path class="st10" d="M359,206.1c-1.2-2.3-1.2-5,0.1-7.3c2.5-4.7,8.2-7,14.9-6.1c3.1,0.4,6.8,3,8.8,6.9c2.2,4.3,2.4,12.9,3,16.2
	L359,206.1z"/>
<path class="st13" d="M358.8,207.9c0,0-1.6,3.1-1.3,3.3c0.4,0.2,0.9,0.4,1.3,0.5L358.8,207.9z"/>
<path class="st13" d="M363.7,198.3c-1.7,1.1-4.7,3.2-4.9,10.1c-0.1,7,0.9,9.3,1.9,10.1c0.7,0.6,4.8,0.3,6.6-0.1s6.8-2.9,8.7-6.7
	c2.1-4.5,1.7-11-1.5-13C371.2,196.7,367.1,196.5,363.7,198.3z"/>
<path class="st3" d="M382.1,250.8c3.1,4.8,6,9,6.6,14.4c1.3,11.4-3,24.4-3.9,32.8c1.7,2.4,2.8,5.3,2.9,8.2c0,3.5-5.6,36.3-5.6,36.3
	s-4.1,1.2-6.1-0.5l-3.9-60.4l2-7.4L382.1,250.8z"/>
<path class="st1" d="M382.1,250.8c3.1,4.8,6,9,6.6,14.4c1.3,11.4-3,24.4-3.9,32.8c1.7,2.4,2.8,5.3,2.9,8.2c0,3.5-5.6,36.3-5.6,36.3
	s-4.1,1.2-6.1-0.5l-3.9-60.4l2-7.4L382.1,250.8z"/>
<path class="st3" d="M372.1,281.7l2-7.4c3.8-1,7.5-2.5,11-4.4c0,0-2.1,3.8-8.1,5.9l-3.1,9.4l-0.3,21.6L372.1,281.7z"/>
<path class="st4" d="M372.1,281.7l2-7.4c3.8-1,7.5-2.5,11-4.4c0,0-2.1,3.8-8.1,5.9l-3.1,9.4l-0.3,21.6L372.1,281.7z"/>
<path class="st3" d="M382.1,250.8c1.6,2.7,5.6,7.3,4.8,11.7c-1,5.4-3.9,9.1-12.7,11.8l-8.3,30c0,0,4.3,4,5.6,7.9s6.1,33.4,6.1,33.4
	s-1.5,2.4-6.1,1.8c0,0-16.2-37-17.4-39.4c-1.4-2.4-1.9-5.3-1.4-8c0.5-3.9,6-46.4,6-46.4L382.1,250.8z"/>
<path class="st1" d="M382.1,250.8c1.6,2.7,5.6,7.3,4.8,11.7c-1,5.4-3.9,9.1-12.7,11.8l-8.3,30c0,0,4.3,4,5.6,7.9s6.1,33.4,6.1,33.4
	s-1.5,2.4-6.1,1.8c0,0-16.2-37-17.4-39.4c-1.4-2.4-1.9-5.3-1.4-8c0.5-3.9,6-46.4,6-46.4L382.1,250.8z"/>
<path class="st3" d="M385.2,228l-20.6-3.3c-0.4-0.1-1.1-0.3-2-0.5l0,0c0,0-0.9,12.9-6.2,15.9l0,0c0.1,0.6,0.2,1.3,0.3,2.1
	c0.3,2.5,2,11.3,2,11.3s8,3.9,14.6,2s8.8-4.7,8.8-4.7l-3.3-5.4C379.8,243.2,383.9,234.3,385.2,228z"/>
<path class="st12" d="M385.2,228l-20.6-3.3c-0.4-0.1-1.1-0.3-2-0.5l0,0c0,0-0.9,12.9-6.2,15.9l0,0c0.1,0.6,0.2,1.3,0.3,2.1
	c0.3,2.5,2,11.3,2,11.3s8,3.9,14.6,2s8.8-4.7,8.8-4.7l-3.3-5.4C379.8,243.2,383.9,234.3,385.2,228z"/>
<path class="st1" d="M379.8,243.4c-2.7,1.6-5.6,3.1-8.6,4.2c2.7-0.1,5.3-0.8,7.7-2.1L379.8,243.4z"/>
<path class="st10" d="M363.2,198.6c0,0-1,6.5,1.4,10.3c0,0,0.9-2.6,3.1-2.1s2.3,3.4,0.8,5c-0.8,0.9-2.1,1.3-3.2,1
	c0,0-0.4,4.7-0.5,8.6s-1.2,12.5,3.2,16s15.5,4.7,20.8-2.6c2.9-4.1-1-11.2-2.7-19.2c-1.6-7.4-2.6-18.3-10.4-20.1
	S363.2,198.6,363.2,198.6z"/>
<g id="freepik--Cloud--inject-2" class="st0">
	<path class="st1" d="M391.9,109.8l-1.6,1c0.1-0.6,0.2-1.2,0.2-1.8c0-3.3-2.4-4.7-5.2-3c-0.9,0.5-1.7,1.2-2.3,2l0,0
		c0-4.5-3.2-6.3-7.1-4.1c-4.2,2.7-6.8,7.3-7.1,12.2c0,0.2,0,0.4,0,0.7c-1-0.1-2,0.1-2.9,0.7c-3.1,2-5,5.4-5.2,9.1
		c0,0.4,0,0.8,0.1,1.3l-0.9,0.5c-2.4,1.4-4.3,4.1-4.3,6s1.9,2.4,4.3,1l32-18.4c2.4-1.4,4.3-4.1,4.3-6S394.3,108.4,391.9,109.8z"/>
</g>
</svg>
