<?xml version="1.0" encoding="utf-8"?>
<!-- Generator: Adobe Illustrator 25.2.1, SVG Export Plug-In . SVG Version: 6.00 Build 0)  -->
<svg version="1.1" id="Layer_1" xmlns="http://www.w3.org/2000/svg" xmlns:xlink="http://www.w3.org/1999/xlink" x="0px" y="0px"
	 viewBox="0 0 500 500" style="enable-background:new 0 0 500 500;" xml:space="preserve">
<style type="text/css">
	.st0{opacity:0.15;}
	.st1{fill:#42CCAE;}
	.st2{opacity:0.7;fill:#42CCAE;enable-background:new    ;}
	.st3{fill:none;stroke:#263238;stroke-linecap:round;stroke-linejoin:round;}
	.st4{fill:#263238;stroke:#263238;stroke-linecap:round;stroke-linejoin:round;}
	.st5{fill:#FFFFFF;stroke:#263238;stroke-linecap:round;stroke-linejoin:round;}
	.st6{fill:#189D80;}
	.st7{fill:#FFFFFF;}
	.st8{fill:none;}
	.st9{opacity:0.16;enable-background:new    ;}
	.st10{opacity:0.5;fill:#189D80;enable-background:new    ;}
	.st11{opacity:0.16;fill:#189D80;enable-background:new    ;}
	.st12{fill:none;stroke:#FFFFFF;stroke-linecap:round;stroke-linejoin:round;}
	.st13{opacity:0.5;}
	.st14{opacity:0.5;enable-background:new    ;}
	.st15{clip-path:url(#SVGID_2_);}
	.st16{clip-path:url(#SVGID_4_);}
	.st17{clip-path:url(#SVGID_6_);}
	.st18{clip-path:url(#SVGID_8_);}
	.st19{clip-path:url(#SVGID_10_);}
	.st20{fill:#2F55D4;}
	.st21{clip-path:url(#SVGID_12_);}
	.st22{opacity:0.16;fill:#42CCAE;enable-background:new    ;}
	.st23{opacity:0.5;fill:#42CCAE;enable-background:new    ;}
	.st24{fill:none;stroke:#263238;stroke-width:0.5;stroke-linecap:round;stroke-linejoin:round;}
	.st25{fill:#263238;}
	.st26{fill:#189D80;stroke:#FFFFFF;stroke-miterlimit:10;}
	.st27{fill:none;stroke:#263238;stroke-width:0.75;stroke-linecap:round;stroke-linejoin:round;}
	.st28{fill:none;stroke:#FFFFFF;stroke-width:3;stroke-linecap:round;stroke-linejoin:round;}
</style>
<g>
	<g id="freepik--background-simple--inject-21" class="st0">
		<path class="st1" d="M440.7,263.8c2-26.6-4.2-54.3-12.5-79c-12.2-36.8-36.2-74.4-76.4-83.1c-23.2-5-46.8,0.4-66.6,12.9
			c-19.1,12.1-34,27.7-57.5,30.7c-23.8,3.1-48.2,1.8-72.1,1.8c-61.4,0-111.3,64.5-98.8,131.8s71.2,113.8,121.1,113.8
			c44.8,0,81.7-26.9,124.2-34.1c21.1-3.6,42.3,0.7,63.2-4.7c24.3-6.2,47.1-21.1,60.5-42.6C435,296.6,439.5,280.4,440.7,263.8z"/>
		<path class="st2" d="M440.7,263.8c2-26.6-4.2-54.3-12.5-79c-12.2-36.8-36.2-74.4-76.4-83.1c-23.2-5-46.8,0.4-66.6,12.9
			c-19.1,12.1-34,27.7-57.5,30.7c-23.8,3.1-48.2,1.8-72.1,1.8c-61.4,0-111.3,64.5-98.8,131.8s71.2,113.8,121.1,113.8
			c44.8,0,81.7-26.9,124.2-34.1c21.1-3.6,42.3,0.7,63.2-4.7c24.3-6.2,47.1-21.1,60.5-42.6C435,296.6,439.5,280.4,440.7,263.8z"/>
	</g>
	<path class="st1" d="M433.5,254.4c0,0,0-5-7-11.9s-11.4-10.9-11.4-10.9s-3.5,11.4,3,18.4c4.8,4.9,9.9,9.4,15.4,13.4L433.5,254.4z"
		/>
	<path class="st1" d="M423.4,285.5c0,0,0-5-7-11.9s-11.4-11-11.4-11s-3.5,11.4,3,18.4c4.8,4.9,9.9,9.4,15.4,13.4V285.5z"/>
	<path class="st1" d="M433.1,262.9c0,0,0.5-4.9,8.2-11.1s12.5-9.7,12.5-9.7s2.2,11.7-4.9,18c-5.2,4.4-10.8,8.3-16.8,11.7
		L433.1,262.9z"/>
	<path class="st1" d="M420.9,299.6c0,0,1-4.9,9.3-10.2s13.5-8.3,13.5-8.3s1,11.9-6.8,17.4c-5.7,3.8-11.7,7.1-17.9,9.9L420.9,299.6z"
		/>
	<path class="st1" d="M423.2,339.6c0,0,0-5,7-11.9s11.4-10.9,11.4-10.9s3.5,11.4-3,18.4c-4.8,4.9-9.9,9.4-15.4,13.4L423.2,339.6z"/>
	<path class="st1" d="M423.1,349.3c0,0,0.7-4.9-5.2-12.8s-9.8-12.5-9.8-12.5s-5.1,10.8,0.3,18.6c4,5.5,8.5,10.7,13.4,15.5
		L423.1,349.3z"/>
	<path class="st1" d="M416.2,378.3c0,0,0-5,7-11.9s11.4-11,11.4-11s3.5,11.4-3,18.4c-4.8,4.9-9.9,9.4-15.4,13.4L416.2,378.3z"/>
	<path class="st1" d="M420.8,404.5c0,0-1.3-4.8,3.7-13.3s8.3-13.5,8.3-13.5s6.3,10.2,1.8,18.6c-3.4,5.9-7.2,11.6-11.5,16.9
		L420.8,404.5z"/>
	<path class="st3" d="M434.1,253.2c-0.4,5.2-1,10.3-1.9,15.4c-2.8,14.2-9.6,23.4-12.4,36.2s5.1,29.4,3,45.9s-8.5,25.7-6.7,36.7
		s11.5,40.8,11.5,40.8"/>
	<line class="st3" x1="433" y1="266.2" x2="440.5" y2="260.5"/>
	<line class="st3" x1="433.4" y1="259.6" x2="430.2" y2="254"/>
	<path class="st3" d="M420.3,304.2c0,0,6.3-4.7,12.7-9.4"/>
	<path class="st3" d="M423.4,294.4c0,0-5.2-10.3-11.2-17.1"/>
	<path class="st3" d="M423.4,346.7c3.6-6.6,8.1-12.7,13.4-18"/>
	<path class="st3" d="M422.2,353.6c-1.9-4.5-4.2-8.8-6.8-12.9c-3.7-5.4-4.2-6.1-4.2-6.1"/>
	<path class="st3" d="M416.2,387.4c1.6-3.9,3.5-7.8,5.7-11.4c2.2-3.4,4.6-6.6,7.3-9.6"/>
	<path class="st3" d="M423.1,413.2c-0.4-3.8,0.3-7.6,1.9-11c2.6-5.1,5.6-11.7,6.8-14.3"/>
	<path class="st1" d="M376.7,320.9c0,0-0.5-3.1,3.1-8.2s6-8.1,6-8.1s3.4,6.8,0.1,11.9c-2.5,3.6-5.2,7-8.2,10.1L376.7,320.9z"/>
	<path class="st1" d="M386.4,339.3c0,0-0.5-3.1,3.1-8.2s6-8.1,6-8.1s3.4,6.8,0.1,11.9c-2.5,3.6-5.2,7-8.2,10.1L386.4,339.3z"/>
	<path class="st1" d="M377.9,326.1c0,0-0.9-3-6.3-6.1s-8.9-4.7-8.9-4.7s-0.1,7.6,5,10.8c3.8,2.2,7.7,4,11.8,5.5L377.9,326.1z"/>
	<path class="st1" d="M389.5,347.8c0,0-1.2-2.9-6.9-5.4s-9.4-3.7-9.4-3.7s0.7,7.6,6.1,10.2c4,1.8,8.1,3.2,12.3,4.3L389.5,347.8z"/>
	<path class="st1" d="M392.4,373.1c0,0-0.5-3.1-5.7-6.7s-8.4-5.6-8.4-5.6s-0.9,7.5,3.9,11.2c3.5,2.6,7.2,4.8,11.1,6.8L392.4,373.1z"
		/>
	<path class="st1" d="M393.6,379.3c0,0-1-3,1.9-8.6s4.8-8.9,4.8-8.9s4.4,6.2,1.8,11.7c-1.9,3.9-4.2,7.6-6.7,11.1L393.6,379.3z"/>
	<path class="st1" d="M402.3,404.4c0,0,0.4-3.1,5.3-7s8-6.1,8-6.1s1.4,7.5-3.2,11.4c-3.4,2.8-6.9,5.2-10.7,7.4L402.3,404.4z"/>
	<path class="st1" d="M401,396.6c0,0-0.5-3.1-5.7-6.7s-8.3-5.6-8.3-5.6s-0.9,7.5,3.9,11.2c3.5,2.6,7.2,4.8,11.1,6.8L401,396.6z"/>
	<path class="st1" d="M401,413.6c0,0,0.3-3.2-3.8-8s-6.7-7.5-6.7-7.5s-2.8,7.1,0.9,11.8c2.7,3.4,5.7,6.5,9,9.3L401,413.6z"/>
	<path class="st3" d="M376.2,320.1c0.8,3.2,1.7,6.4,2.9,9.5c3.3,8.6,8.6,13.6,11.7,21.4s0,19,3.1,29.1s8.2,15.2,8.2,22.3
		s-2.8,26.9-2.8,26.9"/>
	<line class="st3" x1="378.3" y1="328.2" x2="373" y2="325.4"/>
	<line class="st3" x1="377.4" y1="324.1" x2="378.7" y2="320.2"/>
	<path class="st3" d="M390.4,350.7c0,0-4.5-2.3-9-4.5"/>
	<path class="st3" d="M387.4,344.9c1.3-4.1,3-8.1,5.1-11.9"/>
	<path class="st3" d="M393,377.6c-3-3.8-6.5-7.1-10.4-9.8"/>
	<path class="st3" d="M394.6,381.9c0.7-3,1.7-6,2.9-8.8c1.7-3.8,2-4.3,2-4.3"/>
	<path class="st3" d="M401.8,407.8c1.7-2.1,3.7-4.1,5.7-6c1.3-1,2.6-2.1,3.7-3.2"/>
	<path class="st3" d="M402,402.4c-1.4-2.3-3-4.5-4.8-6.6c-1.7-1.9-3.6-3.6-5.6-5.2"/>
	<path class="st3" d="M400.5,419.3c-0.2-2.4-1-4.7-2.4-6.7c-2.2-2.9-4.8-6.7-5.8-8.2"/>
	<polygon class="st1" points="92.7,277.3 88.3,264.8 92.7,270.1 89.2,251.4 94.6,264.8 96.4,238.5 99.6,263.5 103,258.5 103,264.8 
		107.1,256.4 104.9,271.1 108.6,268.6 102.7,276.7 	"/>
	<polygon class="st4" points="106.4,274.2 90.2,274.2 93.1,307 103.5,307 	"/>
	<rect x="81.5" y="306.7" class="st5" width="55.4" height="117.4"/>
	<rect x="109.2" y="306.7" class="st5" width="30.7" height="117.4"/>
	<rect x="109.2" y="306.7" class="st4" width="27.3" height="117.4"/>
	<rect x="109.2" y="396.8" class="st6" width="24.2" height="24"/>
	<rect x="109.2" y="398.1" class="st5" width="24.2" height="3.1"/>
	<rect x="109.2" y="415.8" class="st5" width="24.2" height="3.1"/>
	<line class="st3" x1="113.8" y1="397.3" x2="113.8" y2="427.7"/>
	<line class="st3" x1="122.3" y1="397.3" x2="122.3" y2="427.7"/>
	<line class="st3" x1="129.7" y1="397.3" x2="129.7" y2="427.7"/>
	<rect x="109.2" y="311" class="st6" width="24.2" height="35.4"/>
	<rect x="109.2" y="312.5" class="st5" width="24.2" height="3.5"/>
	<rect x="109.2" y="335.2" class="st5" width="24.2" height="3.5"/>
	<line class="st3" x1="113.8" y1="311.6" x2="113.8" y2="346.1"/>
	<line class="st3" x1="122.3" y1="311.6" x2="122.3" y2="346.1"/>
	<line class="st3" x1="129.7" y1="311.6" x2="129.7" y2="346.1"/>
	<rect x="109.2" y="353.6" class="st6" width="24.2" height="35.4"/>
	<rect x="109.2" y="355.1" class="st5" width="24.2" height="3.5"/>
	<rect x="109.2" y="377.8" class="st5" width="24.2" height="3.5"/>
	<line class="st3" x1="113.8" y1="354.2" x2="113.8" y2="388.7"/>
	<line class="st3" x1="122.3" y1="354.2" x2="122.3" y2="388.7"/>
	<line class="st3" x1="129.7" y1="354.2" x2="129.7" y2="388.7"/>
	<rect x="109.2" y="345.9" class="st5" width="27.7" height="4"/>
	<rect x="109.2" y="388.8" class="st5" width="27.7" height="4"/>
	<line class="st3" x1="136.9" y1="306.7" x2="136.9" y2="424.1"/>
	<polygon class="st5" points="105.3,306.7 105.3,424.1 109.2,424.1 109.2,311 136.5,311 136.5,306.6 	"/>
	<line class="st3" x1="109.2" y1="311" x2="109.2" y2="306.7"/>
	<path class="st7" d="M136.7,252.7c-2.9-5.6-4.1-9.6-4.1-10.6c0-1.8,4-2.9,4-2.9c6.2-3.3,35.6,1.5,48.8,3.7c7.4,1.3,14.9,2,22.4,2.2
		c0,0,1.8-1.5,4-3.3s12.5-13.9,16.5-15s7.7,1.5,7.7,1.5s6.6,4,5.5,4.8s-17.2,14.7-21.3,17.2s-12.5,1.5-19.8,2.9
		c-6.3,1.3-31.9,2.8-37.8,3.3c-4.4,1-9,0.7-13.2-1.1"/>
	<path class="st8" d="M136.7,252.7c-2.9-5.6-4.1-9.6-4.1-10.6c0-1.8,4-2.9,4-2.9c6.2-3.3,35.6,1.5,48.8,3.7c7.4,1.3,14.9,2,22.4,2.2
		c0,0,1.8-1.5,4-3.3s12.5-13.9,16.5-15s7.7,1.5,7.7,1.5s6.6,4,5.5,4.8s-17.2,14.7-21.3,17.2s-12.5,1.5-19.8,2.9
		c-6.3,1.3-31.9,2.8-37.8,3.3c-4.4,1-9,0.7-13.2-1.1"/>
	<g class="st9">
		<path class="st6" d="M236.1,228.2c0,0-3.7-2.6-7.7-1.5s-14.3,13.2-16.5,15s-4,3.3-4,3.3c-7.5-0.2-15-0.9-22.4-2.2
			c-13.2-2.2-42.6-7-48.8-3.7c0,0-4,1.1-4,2.9c0.1,1,0.4,2,0.8,3l0.6,0.2c0,0,7.3-0.8,23.1-0.4s52.4,2.6,54.8,3.4
			c1,0.4,8.1-1.2,15.9-4c6-4.9,13.1-11,13.8-11.4C242.7,232.3,236.1,228.2,236.1,228.2z"/>
		<path class="st10" d="M236.1,228.2c0,0-3.7-2.6-7.7-1.5s-14.3,13.2-16.5,15s-4,3.3-4,3.3c-7.5-0.2-15-0.9-22.4-2.2
			c-13.2-2.2-42.6-7-48.8-3.7c0,0-4,1.1-4,2.9c0.1,1,0.4,2,0.8,3l0.6,0.2c0,0,7.3-0.8,23.1-0.4s52.4,2.6,54.8,3.4
			c1,0.4,8.1-1.2,15.9-4c6-4.9,13.1-11,13.8-11.4C242.7,232.3,236.1,228.2,236.1,228.2z"/>
	</g>
	<path class="st3" d="M136.7,252.7c-2.9-5.6-4.1-9.6-4.1-10.6c0-1.8,4-2.9,4-2.9c6.2-3.3,35.6,1.5,48.8,3.7c7.4,1.3,14.9,2,22.4,2.2
		c0,0,1.8-1.5,4-3.3s12.5-13.9,16.5-15s7.7,1.5,7.7,1.5s6.6,4,5.5,4.8s-17.2,14.7-21.3,17.2s-12.5,1.5-19.8,2.9
		c-6.3,1.3-31.9,2.8-37.8,3.3c-4.4,1-9,0.7-13.2-1.1"/>
	<path class="st7" d="M281.6,285.4c1.4-2.6,4-4.2,6.9-4.2h66.7c0,0,4.8,0,3.4,9.2s-21.2,65.1-26,82s-5.8,52.5-5.8,52.5h-80
		C246.9,424.9,253.2,339.7,281.6,285.4z"/>
	<path class="st8" d="M281.6,285.4c1.4-2.6,4-4.2,6.9-4.2h66.7c0,0,4.8,0,3.4,9.2s-21.2,65.1-26,82s-5.8,52.5-5.8,52.5h-80
		C246.9,424.9,253.2,339.7,281.6,285.4z"/>
	<g>
		<path class="st11" d="M311.7,281.2h-23.1c-2.9,0-5.6,1.6-6.9,4.2c-28.4,54.3-34.9,139.5-34.9,139.5h35.9l8.9-33.6l36.9,7.6
			c0.3-2.8,0.6-5.7,0.9-8.5l-0.8-9c0,0-7.6-8-9.9-9.9s-0.8-5.6-1.2-21.1s-14.3-26.7-19.5-36.2s2.8-15.5,10-25.1
			C310.4,285.6,311.4,283,311.7,281.2z"/>
	</g>
	<path class="st3" d="M281.6,285.4c1.4-2.6,4-4.2,6.9-4.2h66.7c0,0,4.8,0,3.4,9.2s-21.2,65.1-26,82s-5.8,52.5-5.8,52.5h-80
		C246.9,424.9,253.2,339.7,281.6,285.4z"/>
	<path class="st4" d="M343.7,297.1c-6.7,15.7-21,78-23.3,127.8h6.4c0,0,1-35.7,5.8-52.5s24.6-72.8,26-82s-3.4-9.2-3.4-9.2
		S349.1,284.5,343.7,297.1z"/>
	<path class="st4" d="M226.5,265.7c0,0-10.6-6.2-14.7-17.2s31.6-28.6,47-29.7s19.8,2.9,29,18.7s15.4,37.4,10.6,48.1s-12.8,13.2-7,22
		s22.4,33.8,21.3,45.5s-12.5,22-29,23.1s-38.5-8.8-56.9-25s-13.6-40-7-47.7s16.5-10.6,17.2-18.3S226.5,265.7,226.5,265.7z"/>
	<path class="st12" d="M271.9,248.2c5.6,10.5,12.7,24.6,14.9,33.1c3.9,14.9-16,24.3-10.5,31.5"/>
	<path class="st12" d="M264.2,234.5c0,0,2.2,3.8,5.2,9.3"/>
	<path class="st12" d="M293.8,260.9c0.7,2,1.1,4,1.3,6.1"/>
	<path class="st12" d="M268,229c0,0,17.4,12.8,24.3,28.2"/>
	<path class="st12" d="M243.9,238.6c-12.4,3.5-30.3,9.1-28.8,12.4"/>
	<path class="st12" d="M255.4,235.6c0,0-2.6,0.7-6.6,1.7"/>
	<path class="st12" d="M240,229.1c7.1-2.2,14.6-3.2,22-2.9"/>
	<path class="st12" d="M234.9,231.2c1.1-0.6,2.3-1.1,3.5-1.5"/>
	<path class="st7" d="M132.6,242.2c0,0.1,0,0.1,0,0.2C132.6,242.3,132.6,242.2,132.6,242.2z M136.7,252.7c-1.7-3.1-3-6.3-4-9.7
		C133.7,246.4,135.1,249.7,136.7,252.7L136.7,252.7z M132.6,242.4c0,0.1,0,0.1,0,0.2C132.6,242.6,132.6,242.5,132.6,242.4z
		 M132.7,242.7c0,0.1,0,0.2,0.1,0.3C132.7,242.9,132.7,242.8,132.7,242.7L132.7,242.7z M136.7,252.7c3.7,7.1,8.4,13.6,13.8,19.5
		c13.2,14.3,51.4,51.7,55,54.3s2.6,9.9,0,17.2s-12.1,18-11.7,29.7s4,29.7,3.7,33.4s-9.5,16.2-9.5,16.2h94.7c0,0-11.8-15-11.8-20.1
		s16.2-70.9,16.9-75.6s-2.2-8.1-8.1-8.4s-28.2-5.1-29.4-8.8s5.9-17.6,5.9-17.6l-22,1.1c0,0-1.1,9.5-2.6,11.4s-3.7-1.8-8.8-4.4
		s-15-4.8-18.7-7.7s-38.9-36-38.9-36"/>
	<path class="st8" d="M132.6,242.2c0,0.1,0,0.1,0,0.2C132.6,242.3,132.6,242.2,132.6,242.2z M136.7,252.7c-1.7-3.1-3-6.3-4-9.7
		C133.7,246.4,135.1,249.7,136.7,252.7L136.7,252.7z M132.6,242.4c0,0.1,0,0.1,0,0.2C132.6,242.6,132.6,242.5,132.6,242.4z
		 M132.7,242.7c0,0.1,0,0.2,0.1,0.3C132.7,242.9,132.7,242.8,132.7,242.7L132.7,242.7z M136.7,252.7c3.7,7.1,8.4,13.6,13.8,19.5
		c13.2,14.3,51.4,51.7,55,54.3s2.6,9.9,0,17.2s-12.1,18-11.7,29.7s4,29.7,3.7,33.4s-9.5,16.2-9.5,16.2h94.7c0,0-11.8-15-11.8-20.1
		s16.2-70.9,16.9-75.6s-2.2-8.1-8.1-8.4s-28.2-5.1-29.4-8.8s5.9-17.6,5.9-17.6l-22,1.1c0,0-1.1,9.5-2.6,11.4s-3.7-1.8-8.8-4.4
		s-15-4.8-18.7-7.7s-38.9-36-38.9-36"/>
	<g class="st9">
		<path class="st6" d="M209.8,295.6c1.8,3.2,3.7,6.1,3.7,6.1s6.2,3.5,7.7,3.5s10.8,5,10.8,5s7.7-1.9,5-8.5c-0.9-1.7-1.9-3.2-3.2-4.6
			c-0.5,2.9-1.2,6.7-2.1,7.8c-1.5,1.8-3.7-1.8-8.8-4.4C219.5,298.8,214.1,297.3,209.8,295.6z"/>
		<path class="st6" d="M190.9,280.8c-11.3-10.5-25.7-23.9-25.7-23.9l-8.3-1.2l-1,0.6c0,0,23.5,20.8,28.6,23.1
			C186.5,280.3,188.7,280.8,190.9,280.8z"/>
		<path class="st6" d="M202.8,291.6l-0.9-0.8c0.5,0.8,0.7,1.2,0.7,1.2L202.8,291.6z"/>
		<g class="st13">
			<path class="st6" d="M209.8,295.6c1.8,3.2,3.7,6.1,3.7,6.1s6.2,3.5,7.7,3.5s10.8,5,10.8,5s7.7-1.9,5-8.5
				c-0.9-1.7-1.9-3.2-3.2-4.6c-0.5,2.9-1.2,6.7-2.1,7.8c-1.5,1.8-3.7-1.8-8.8-4.4C219.5,298.8,214.1,297.3,209.8,295.6z"/>
			<path class="st6" d="M190.9,280.8c-11.3-10.5-25.7-23.9-25.7-23.9l-8.3-1.2l-1,0.6c0,0,23.5,20.8,28.6,23.1
				C186.5,280.3,188.7,280.8,190.9,280.8z"/>
			<path class="st6" d="M202.8,291.6l-0.9-0.8c0.5,0.8,0.7,1.2,0.7,1.2L202.8,291.6z"/>
		</g>
	</g>
	<path class="st3" d="M132.6,242.2c0,0.1,0,0.1,0,0.2C132.6,242.3,132.6,242.2,132.6,242.2z M136.7,252.7c-1.7-3.1-3-6.3-4-9.7
		C133.7,246.4,135.1,249.7,136.7,252.7L136.7,252.7z M132.6,242.4c0,0.1,0,0.1,0,0.2C132.6,242.6,132.6,242.5,132.6,242.4z
		 M132.7,242.7c0,0.1,0,0.2,0.1,0.3C132.7,242.9,132.7,242.8,132.7,242.7L132.7,242.7z M136.7,252.7c3.7,7.1,8.4,13.6,13.8,19.5
		c13.2,14.3,51.4,51.7,55,54.3s2.6,9.9,0,17.2s-12.1,18-11.7,29.7s4,29.7,3.7,33.4s-9.5,16.2-9.5,16.2h94.7c0,0-11.8-15-11.8-20.1
		s16.2-70.9,16.9-75.6s-2.2-8.1-8.1-8.4s-28.2-5.1-29.4-8.8s5.9-17.6,5.9-17.6l-22,1.1c0,0-1.1,9.5-2.6,11.4s-3.7-1.8-8.8-4.4
		s-15-4.8-18.7-7.7s-38.9-36-38.9-36"/>
	<path class="st3" d="M165.3,256.9c0,0-11.7,0.2-18.3-5.2"/>
	<path class="st7" d="M250.4,310c-1.1-3.7,5.9-17.6,5.9-17.6l-22,1.1c0,0-1.1,9.5-2.6,11.4s-3.7-1.8-8.8-4.4
		c-0.4-0.2-0.8-0.4-1.3-0.6l-1.3,20.9c0,0,1.9,20.2,25.1,16.4c9.4-1.6,19.4-9.9,28-19.3C264.5,316.3,251.2,312.9,250.4,310z"/>
	<path class="st8" d="M250.4,310c-1.1-3.7,5.9-17.6,5.9-17.6l-22,1.1c0,0-1.1,9.5-2.6,11.4s-3.7-1.8-8.8-4.4
		c-0.4-0.2-0.8-0.4-1.3-0.6l-1.3,20.9c0,0,1.9,20.2,25.1,16.4c9.4-1.6,19.4-9.9,28-19.3C264.5,316.3,251.2,312.9,250.4,310z"/>
	<g class="st14">
		<path class="st6" d="M249.8,295.2c0,0-1.3,7.5-2.4,15.7s-1.9,14.4-1.9,14.4l4.9-15.3l5.5-16.2
			C255.9,293.9,250.6,293.9,249.8,295.2z"/>
		<path class="st10" d="M249.8,295.2c0,0-1.3,7.5-2.4,15.7s-1.9,14.4-1.9,14.4l4.9-15.3l5.5-16.2
			C255.9,293.9,250.6,293.9,249.8,295.2z"/>
	</g>
	<path class="st3" d="M250.4,310c-1.1-3.7,5.9-17.6,5.9-17.6l-22,1.1c0,0-1.1,9.5-2.6,11.4s-3.7-1.8-8.8-4.4
		c-0.4-0.2-0.8-0.4-1.3-0.6l-1.3,20.9c0,0,1.9,20.2,25.1,16.4c9.4-1.6,19.4-9.9,28-19.3C264.5,316.3,251.2,312.9,250.4,310z"/>
	<path class="st1" d="M231.7,304.9c-1.5,1.8-3.7-1.8-8.8-4.4c-3.2-1.6-8.4-3.1-12.7-4.7c-1.2-2.9-2.8-6.6-3.8-8.9
		c-1.8-4-4.8-1.5-4.8-1.5c-1.5-1.7-2.8-3.7-3.7-5.9c-1.8-4-4.8-3.7-8.8-4.4s-12.5-8.4-12.5-8.4s-3.9-3-5.6-4.5
		c-1.9,3.7-6.4,10.3-16.3,14.4c15.7,16.4,47.5,47.5,50.9,49.9c3.7,2.6,2.6,9.9,0,17.2s-12.1,18-11.7,29.7s4,29.7,3.7,33.4
		c-0.3,3.3-7.6,13.5-9.2,15.7l3.7,0.4h19.4c-0.1-9.8-0.1-50,6.6-66C225.8,338.7,231.7,304.9,231.7,304.9z"/>
	<g>
		<defs>
			<path id="SVGID_1_" d="M231.7,304.9c-1.5,1.8-3.7-1.8-8.8-4.4c-3.2-1.6-8.4-3.1-12.7-4.7c-1.2-2.9-2.8-6.6-3.8-8.9
				c-1.8-4-4.8-1.5-4.8-1.5c-1.5-1.7-2.8-3.7-3.7-5.9c-1.8-4-4.8-3.7-8.8-4.4s-12.5-8.4-12.5-8.4s-3.9-3-5.6-4.5
				c-1.9,3.7-6.4,10.3-16.3,14.4c15.7,16.4,47.5,47.5,50.9,49.9c3.7,2.6,2.6,9.9,0,17.2s-12.1,18-11.7,29.7s4,29.7,3.7,33.4
				c-0.3,3.3-7.6,13.5-9.2,15.7l3.7,0.4h19.4c-0.1-9.8-0.1-50,6.6-66C225.8,338.7,231.7,304.9,231.7,304.9z"/>
		</defs>
		<clipPath id="SVGID_2_">
			<use xlink:href="#SVGID_1_"  style="overflow:visible;"/>
		</clipPath>
		<g class="st15">
			<path class="st9" d="M222.9,300.5c-3.2-1.6-8.4-3.1-12.7-4.7c-1.2-2.9-2.8-6.6-3.8-8.9c-1.8-4-4.8-1.5-4.8-1.5
				c-1.5-1.7-2.8-3.7-3.7-5.9c-1.8-4-4.8-3.7-8.8-4.4s-12.5-8.4-12.5-8.4s-3.9-3-5.6-4.5c-0.8,1.6-1.8,3.1-2.9,4.5
				c6.6,5.5,13.8,11.4,16.3,12.6c5,2.3,6.2,0.4,10,2.7s8.1,10,8.1,10s2.3-6.2,4.2-1.9s6.6,11.6,6.6,11.6s6.2,3.5,7.7,3.5
				c1.2,0,7.1,3.1,9.7,4.4c0.6-2.9,0.9-4.7,0.9-4.7C230.2,306.8,228,303.1,222.9,300.5z"/>
		</g>
	</g>
	<path class="st3" d="M231.7,304.9c-1.5,1.8-3.7-1.8-8.8-4.4c-3.2-1.6-8.4-3.1-12.7-4.7c-1.2-2.9-2.8-6.6-3.8-8.9
		c-1.8-4-4.8-1.5-4.8-1.5c-1.5-1.7-2.8-3.7-3.7-5.9c-1.8-4-4.8-3.7-8.8-4.4s-12.5-8.4-12.5-8.4s-3.9-3-5.6-4.5
		c-1.9,3.7-6.4,10.3-16.3,14.4c15.7,16.4,47.5,47.5,50.9,49.9c3.7,2.6,2.6,9.9,0,17.2s-12.1,18-11.7,29.7s4,29.7,3.7,33.4
		c-0.3,3.3-7.6,13.5-9.2,15.7l3.7,0.4h19.4c-0.1-9.8-0.1-50,6.6-66C225.8,338.7,231.7,304.9,231.7,304.9z"/>
	<path class="st6" d="M231.9,303.6c0,0-4.6-1.4-7.4,1.1s-7,15.1-9.5,28.8c-1.5,8-0.5,16.2,3,23.5c0,0,5.8-15.1,7.5-22.5
		S231.9,303.6,231.9,303.6z"/>
	<g>
		<defs>
			<path id="SVGID_3_" d="M231.9,303.6c0,0-4.6-1.4-7.4,1.1s-7,15.1-9.5,28.8c-1.5,8-0.5,16.2,3,23.5c0,0,5.8-15.1,7.5-22.5
				S231.9,303.6,231.9,303.6z"/>
		</defs>
		<clipPath id="SVGID_4_">
			<use xlink:href="#SVGID_3_"  style="overflow:visible;"/>
		</clipPath>
		<g class="st16">
			<path class="st9" d="M223.2,305.9c0,0,3.3-0.8,4.7-0.3c1.1,0.5,2.2,1.1,3.2,1.9l0.9-3.8c-1.4-0.7-2.9-1-4.4-0.7
				C225.2,303.4,223.2,305.9,223.2,305.9z"/>
		</g>
	</g>
	<path class="st3" d="M231.9,303.6c0,0-4.6-1.4-7.4,1.1s-7,15.1-9.5,28.8c-1.5,8-0.5,16.2,3,23.5c0,0,5.8-15.1,7.5-22.5
		S231.9,303.6,231.9,303.6z"/>
	<polyline class="st3" points="201.2,304.8 207.1,328.7 193.9,298.6 	"/>
	<path class="st1" d="M239.9,423.1h42.8c0,0-11.8-15-11.8-20.1s16.2-70.9,16.9-75.6s-2.2-8.1-8.1-8.4s-28.2-5.1-29.4-8.8
		c0,0-8.4,29.7-11.4,49.9C236.5,377.3,239.1,413.2,239.9,423.1z"/>
	<g>
		<defs>
			<path id="SVGID_5_" d="M239.9,423.1h42.8c0,0-11.8-15-11.8-20.1s16.2-70.9,16.9-75.6s-2.2-8.1-8.1-8.4s-28.2-5.1-29.4-8.8
				c0,0-8.4,29.7-11.4,49.9C236.5,377.3,239.1,413.2,239.9,423.1z"/>
		</defs>
		<clipPath id="SVGID_6_">
			<use xlink:href="#SVGID_5_"  style="overflow:visible;"/>
		</clipPath>
		<g class="st17">
			<path class="st9" d="M279.7,318.9c-4.8-0.3-20.7-3.6-26.9-6.7l2.2,5.2c4.1,2.2,8.5,3.7,13,4.5c7.5,1.3,14.4,1.1,18.9,7.7l0.2,0.3
				c0.3-1.3,0.5-2.2,0.5-2.6C288.5,322.5,285.6,319.2,279.7,318.9z"/>
		</g>
	</g>
	<path class="st3" d="M239.9,423.1h42.8c0,0-11.8-15-11.8-20.1s16.2-70.9,16.9-75.6s-2.2-8.1-8.1-8.4s-28.2-5.1-29.4-8.8
		c0,0-8.4,29.7-11.4,49.9C236.5,377.3,239.1,413.2,239.9,423.1z"/>
	<path class="st6" d="M250.4,310c0,0-11.3,36-11.4,49.9c0,0,16.1-19.5,18.2-33.1C259.3,313.1,250.4,310,250.4,310z"/>
	<g>
		<defs>
			<path id="SVGID_7_" d="M250.4,310c0,0-11.3,36-11.4,49.9c0,0,16.1-19.5,18.2-33.1C259.3,313.1,250.4,310,250.4,310z"/>
		</defs>
		<clipPath id="SVGID_8_">
			<use xlink:href="#SVGID_7_"  style="overflow:visible;"/>
		</clipPath>
		<g class="st18">
			<path class="st9" d="M248.4,314.6c3.5-0.1,6.7,1.5,8.8,4.3c0,0-2.2-6.5-6.8-8.9L248.4,314.6z"/>
		</g>
	</g>
	<path class="st3" d="M250.4,310c0,0-11.3,36-11.4,49.9c0,0,16.1-19.5,18.2-33.1C259.3,313.1,250.4,310,250.4,310z"/>
	<path class="st7" d="M371.2,416.3c0,0,8.3,0.3,13.7,1.1c3.6,0.5,7.3,0.8,10.9,0.9c0,0-3-6.1-6.2-7.8s-9-4.8-13.9-4.1
		s-11.8,5.6-11.2,7.1S367.8,415.8,371.2,416.3z"/>
	<path class="st8" d="M371.2,416.3c0,0,8.3,0.3,13.7,1.1c3.6,0.5,7.3,0.8,10.9,0.9c0,0-3-6.1-6.2-7.8s-9-4.8-13.9-4.1
		s-11.8,5.6-11.2,7.1S367.8,415.8,371.2,416.3z"/>
	<g class="st14">
		<path class="st6" d="M371.2,416.3c0,0,8.3,0.3,13.7,1.1c3.6,0.5,7.3,0.8,10.9,0.9c0,0-3-6.1-6.2-7.8s-9-4.8-13.9-4.1
			s-11.8,5.6-11.2,7.1S367.8,415.8,371.2,416.3z"/>
		<path class="st10" d="M371.2,416.3c0,0,8.3,0.3,13.7,1.1c3.6,0.5,7.3,0.8,10.9,0.9c0,0-3-6.1-6.2-7.8s-9-4.8-13.9-4.1
			s-11.8,5.6-11.2,7.1S367.8,415.8,371.2,416.3z"/>
	</g>
	<path class="st3" d="M371.2,416.3c0,0,8.3,0.3,13.7,1.1c3.6,0.5,7.3,0.8,10.9,0.9c0,0-3-6.1-6.2-7.8s-9-4.8-13.9-4.1
		s-11.8,5.6-11.2,7.1S367.8,415.8,371.2,416.3z"/>
	<path class="st7" d="M385,413.8c0,0,6.6-3.4,8.2-3.4s12.5,7.4,12,8.6c-0.8,1.1-2.1,1.6-3.4,1.3c-1.2-0.6-8.5-3.7-8.5-3.7l-4.8,1.1
		L385,413.8z"/>
	<path class="st8" d="M385,413.8c0,0,6.6-3.4,8.2-3.4s12.5,7.4,12,8.6c-0.8,1.1-2.1,1.6-3.4,1.3c-1.2-0.6-8.5-3.7-8.5-3.7l-4.8,1.1
		L385,413.8z"/>
	<g class="st14">
		<path class="st6" d="M385,413.8c0,0,6.6-3.4,8.2-3.4s12.5,7.4,12,8.6s-3.1,2.1-3.4,1.3s-8.5-3.7-8.5-3.7l-4.8,1.1L385,413.8z"/>
		<path class="st10" d="M385,413.8c0,0,6.6-3.4,8.2-3.4s12.5,7.4,12,8.6s-3.1,2.1-3.4,1.3s-8.5-3.7-8.5-3.7l-4.8,1.1L385,413.8z"/>
	</g>
	<path class="st3" d="M385,413.8c0,0,6.6-3.4,8.2-3.4s12.5,7.4,12,8.6c-0.8,1.1-2.1,1.6-3.4,1.3c-1.2-0.6-8.5-3.7-8.5-3.7l-4.8,1.1
		L385,413.8z"/>
	<path class="st7" d="M380.3,408.2c0,0,8.8-0.3,10.5,0.6s9.6,14.4,8.4,15.3s-4.4,0.7-4.3-0.4s-7.2-8.3-7.2-8.3l-5.7-1.2L380.3,408.2
		z"/>
	<path class="st8" d="M380.3,408.2c0,0,8.8-0.3,10.5,0.6s9.6,14.4,8.4,15.3s-4.4,0.7-4.3-0.4s-7.2-8.3-7.2-8.3l-5.7-1.2L380.3,408.2
		z"/>
	<g class="st14">
		<path class="st6" d="M380.3,408.2c0,0,8.8-0.3,10.5,0.6s9.6,14.4,8.4,15.3s-4.4,0.7-4.3-0.4s-7.2-8.3-7.2-8.3l-5.7-1.2
			L380.3,408.2z"/>
		<path class="st10" d="M380.3,408.2c0,0,8.8-0.3,10.5,0.6s9.6,14.4,8.4,15.3s-4.4,0.7-4.3-0.4s-7.2-8.3-7.2-8.3l-5.7-1.2
			L380.3,408.2z"/>
	</g>
	<path class="st3" d="M380.3,408.2c0,0,8.8-0.3,10.5,0.6s9.6,14.4,8.4,15.3s-4.4,0.7-4.3-0.4s-7.2-8.3-7.2-8.3l-5.7-1.2L380.3,408.2
		z"/>
	<path class="st7" d="M375.1,406.4c0,0,8.9-0.3,10.6,0.6s9.7,14.5,8.5,15.5s-4.5,0.7-4.4-0.4s-7.3-8.4-7.3-8.4l-5.8-1.3L375.1,406.4
		z"/>
	<g class="st14">
		<defs>
			<path id="SVGID_9_" class="st14" d="M375.1,406.4c0,0,8.9-0.3,10.6,0.6s9.7,14.5,8.5,15.5s-4.5,0.7-4.4-0.4s-7.3-8.4-7.3-8.4
				l-5.8-1.3L375.1,406.4z"/>
		</defs>
		<use xlink:href="#SVGID_9_"  style="overflow:visible;fill:#189D80;"/>
		<clipPath id="SVGID_10_">
			<use xlink:href="#SVGID_9_"  style="overflow:visible;"/>
		</clipPath>
		<g class="st19">
			<path class="st6" d="M375.1,406.4c0,0,8.9-0.3,10.6,0.6s9.7,14.5,8.5,15.5s-4.5,0.7-4.4-0.4s-7.3-8.4-7.3-8.4l-5.8-1.3
				L375.1,406.4z"/>
			<path class="st10" d="M375.1,406.4c0,0,8.9-0.3,10.6,0.6s9.7,14.5,8.5,15.5s-4.5,0.7-4.4-0.4s-7.3-8.4-7.3-8.4l-5.8-1.3
				L375.1,406.4z"/>
		</g>
	</g>
	<path class="st3" d="M375.1,406.4c0,0,8.9-0.3,10.6,0.6s9.7,14.5,8.5,15.5s-4.5,0.7-4.4-0.4s-7.3-8.4-7.3-8.4l-5.8-1.3L375.1,406.4
		z"/>
	<path class="st20" d="M274.3,355.6c6.4,9.9,19.3,35,23.1,37.8c5.9,4.4,45.1,15.1,48.9,18s3.5,5.9,7.1,6.9s17,4.1,22.1,4.6
		s2.8-2.7,2.8-2.7l-8.7-6l7.6-1.9c0,0,7.6,9.2,9.1,9.7s4,0,3.8-1.1c-0.3-1.8-8.4-16.6-11.3-17.2s-20.4,1.8-20.4,1.8
		s-36.8-24.8-37.5-25.7c0,0-2.2-6.2-4-8.8s-2.9-1.8-2.9-1.8s0.7-3.3-0.4-4.4l-5.9-5.9l-0.2,0.3c-1-2-2-4.3-3.1-6.9
		c-3.1-7.2-13.9-27.5-15.8-30.5c-1.4-2.2-12.9-3.8-18.7-4.4"/>
	<g>
		<defs>
			<path id="SVGID_11_" d="M274.3,355.6c6.4,9.9,19.3,35,23.1,37.8c5.9,4.4,45.1,15.1,48.9,18s3.5,5.9,7.1,6.9s17,4.1,22.1,4.6
				s2.8-2.7,2.8-2.7l-8.7-6l7.6-1.9c0,0,7.6,9.2,9.1,9.7s4,0,3.8-1.1c-0.3-1.8-8.4-16.6-11.3-17.2s-20.4,1.8-20.4,1.8
				s-36.8-24.8-37.5-25.7c0,0-2.2-6.2-4-8.8s-2.9-1.8-2.9-1.8s0.7-3.3-0.4-4.4l-5.9-5.9l-0.2,0.3c-1-2-2-4.3-3.1-6.9
				c-3.1-7.2-13.9-27.5-15.8-30.5c-1.4-2.2-12.9-3.8-18.7-4.4"/>
		</defs>
		<use xlink:href="#SVGID_11_"  style="overflow:visible;fill:#42CCAE;"/>
		<clipPath id="SVGID_12_">
			<use xlink:href="#SVGID_11_"  style="overflow:visible;"/>
		</clipPath>
		<g class="st21">
			<path class="st22" d="M299.8,356.2c4.8,4.3,3.2,4.3,2.1,8s0.8-1.3,5.3-1.1s3.2,6.1,2.7,7.2s5.6,2.4,4.5,4.8s-7.2,5.9-10.6,9.3
				s9-5.6,13.3-5.9c1.3-0.1,2.4,0.1,3.3,0.1c-0.9-2.7-2.2-5.2-3.6-7.7c-1.8-2.6-2.9-1.8-2.9-1.8s0.7-3.3-0.4-4.4l-5.9-5.9l-0.2,0.3
				c-1-2-2-4.3-3.1-6.9c-3.1-7.2-13.9-27.5-15.8-30.5c-1.4-2.2-12.9-3.8-18.7-4.4l0.5,4.6l0.1,0.1c0,0,7.2,1.3,9.6,1.6
				s5.3,2.4,5.1,4s-7.2,8.8-5.1,9.3s4.5-5.3,6.9-4.5S295,351.9,299.8,356.2z"/>
		</g>
	</g>
	<path class="st3" d="M274.3,355.6c6.4,9.9,19.3,35,23.1,37.8c5.9,4.4,45.1,15.1,48.9,18s3.5,5.9,7.1,6.9s17,4.1,22.1,4.6
		s2.8-2.7,2.8-2.7l-8.7-6l7.6-1.9c0,0,7.6,9.2,9.1,9.7s4,0,3.8-1.1c-0.3-1.8-8.4-16.6-11.3-17.2s-20.4,1.8-20.4,1.8
		s-36.8-24.8-37.5-25.7c0,0-2.2-6.2-4-8.8s-2.9-1.8-2.9-1.8s0.7-3.3-0.4-4.4l-5.9-5.9l-0.2,0.3c-1-2-2-4.3-3.1-6.9
		c-3.1-7.2-13.9-27.5-15.8-30.5c-1.4-2.2-12.9-3.8-18.7-4.4"/>
	<path class="st3" d="M274.4,342c-0.3,0.9-0.5,1.8-0.7,2.7"/>
	<path class="st3" d="M284.1,325.5c-3.1,3.6-5.8,7.6-7.9,11.9"/>
	<path class="st3" d="M298.8,382.2c2.7-4,7-9.1,11.7-10.5"/>
	<path class="st3" d="M295.8,387.1c0,0,0.5-0.9,1.3-2.4"/>
	<path class="st3" d="M295.8,380.8c0,0,4.9-12.3,9.8-15.4s2.1,3.2,2.1,3.2"/>
	<path class="st7" d="M346.2,411.4c3.8,2.9,3.5,5.9,7.1,6.9s17,4.1,22.1,4.6s2.8-2.7,2.8-2.7l-8.7-6l7.6-1.9c0,0,7.6,9.2,9.1,9.7
		s4.1,0.7,3.8-1.1c-0.7-3.5-8.4-16.6-11.3-17.2s-20.4,1.8-20.4,1.8s-33.5-23-37.2-25.5c-14.2,1.4-21,8.8-23.9,13.3l0.1,0.1
		C303.2,397.7,342.5,408.4,346.2,411.4z"/>
	<path class="st8" d="M346.2,411.4c3.8,2.9,3.5,5.9,7.1,6.9s17,4.1,22.1,4.6s2.8-2.7,2.8-2.7l-8.7-6l7.6-1.9c0,0,7.6,9.2,9.1,9.7
		s4.1,0.7,3.8-1.1c-0.7-3.5-8.4-16.6-11.3-17.2s-20.4,1.8-20.4,1.8s-33.5-23-37.2-25.5c-14.2,1.4-21,8.8-23.9,13.3l0.1,0.1
		C303.2,397.7,342.5,408.4,346.2,411.4z"/>
	<g class="st9">
		<path class="st6" d="M390,420.9c-1.8-4.5-8.4-16.6-11.3-17.2s-20.4,1.8-20.4,1.8s-33.5-23-37.2-25.5c-3.7,0.3-7.4,1.2-10.9,2.6
			c5.3,3,40.5,23,45,23.9c4.7,1,20.5-1.6,23.2,0.3c1.8,1.2,7,9.5,10.5,15.4C390,422,390.4,421.8,390,420.9z"/>
		<path class="st10" d="M390,420.9c-2.8-6.4-8.4-16.6-11.3-17.2s-20.4,1.8-20.4,1.8s-33.5-23-37.2-25.5c-3.7,0.3-7.4,1.2-10.9,2.6
			c5.3,3,40.5,23,45,23.9c4.7,1,20.5-1.6,23.2,0.3c1.8,1.2,7,9.5,10.5,15.4C390,422,390.4,421.8,390,420.9z"/>
	</g>
	<path class="st3" d="M346.2,411.4c3.8,2.9,3.5,5.9,7.1,6.9s17,4.1,22.1,4.6s2.8-2.7,2.8-2.7l-8.7-6l7.6-1.9c0,0,7.6,9.2,9.1,9.7
		s4.1,0.7,3.8-1.1c-0.7-3.5-8.4-16.6-11.3-17.2s-20.4,1.8-20.4,1.8s-33.5-23-37.2-25.5c-14.2,1.4-21,8.8-23.9,13.3l0.1,0.1
		C303.2,397.7,342.5,408.4,346.2,411.4z"/>
	<path class="st7" d="M257.9,236.7l-30.1,12.6c-0.4,5.3-1.7,10.5-3.9,15.3c-3.6,7.5-1.5,21.8,1.9,29.5s18.5,4.7,24,3.7
		c3.7-0.7,7.4-1.8,10.9-3.2c3.3,1.3,7,0.7,9.8-1.4C270.5,293.3,254.4,248,257.9,236.7z"/>
	<path class="st8" d="M257.9,236.7l-30.1,12.6c-0.4,5.3-1.7,10.5-3.9,15.3c-3.6,7.5-1.5,21.8,1.9,29.5s18.5,4.7,24,3.7
		c3.7-0.7,7.4-1.8,10.9-3.2c3.3,1.3,7,0.7,9.8-1.4C270.5,293.3,254.4,248,257.9,236.7z"/>
	<g>
		<path class="st1" d="M257.9,236.7l-30.1,12.6c-0.4,5.3-1.7,10.5-3.9,15.3c-3.6,7.5-1.5,21.8,1.9,29.5c0.6,1.2,1.5,2.3,2.6,3v-0.6
			c0,0-5.6-13.9-4.5-21.8s5.6-12,6.1-17s0.3-7.4,10.4-11.2s14.4-7.2,15.4-3.5s5.3,28.2,8.3,34.1s2.7,12-1.9,14.6
			c-4.6,2.7-9.5,4.9-14.6,6.4l2.1-0.4c3.7-0.7,7.4-1.8,10.9-3.2c3.3,1.3,7,0.7,9.8-1.4C270.5,293.2,254.4,248,257.9,236.7z"/>
		<path class="st23" d="M257.9,236.7l-30.1,12.6c-0.4,5.3-1.7,10.5-3.9,15.3c-3.6,7.5-1.5,21.8,1.9,29.5c0.6,1.2,1.5,2.3,2.6,3v-0.6
			c0,0-5.6-13.9-4.5-21.8s5.6-12,6.1-17s0.3-7.4,10.4-11.2s14.4-7.2,15.4-3.5s5.3,28.2,8.3,34.1s2.7,12-1.9,14.6
			c-4.6,2.7-9.5,4.9-14.6,6.4l2.1-0.4c3.7-0.7,7.4-1.8,10.9-3.2c3.3,1.3,7,0.7,9.8-1.4C270.5,293.2,254.4,248,257.9,236.7z"/>
	</g>
	<path class="st3" d="M257.9,236.7l-30.1,12.6c-0.4,5.3-1.7,10.5-3.9,15.3c-3.6,7.5-1.5,21.8,1.9,29.5s18.5,4.7,24,3.7
		c3.7-0.7,7.4-1.8,10.9-3.2c3.3,1.3,7,0.7,9.8-1.4C270.5,293.3,254.4,248,257.9,236.7z"/>
	<path class="st3" d="M242.6,256.4c0.1,1.8-0.1,3.5-0.6,5.2c-0.8,2-8.4,9.9-8.1,10.7s0.9,3.6,2.2,3.8"/>
	<path class="st3" d="M251,263.5c1.1-2.1,4.5,0,4.4,4.7"/>
	<path class="st3" d="M233.9,257.3c0,0,2.9-1.3,5.6,3.5"/>
	<path class="st24" d="M246.8,270.4c3.4,0.2,6.6,1.5,9.1,3.8"/>
	<path class="st24" d="M230.4,264.1c1.8,0.2,3.5,0.7,5.1,1.4"/>
	<path class="st25" d="M242.3,252c-1.6-0.8-3.4-0.9-5.1-0.1c-2.7,1.3-4.3,2.7-4.2,1.1s3.3-3.5,4.3-3.7S242.6,248.3,242.3,252z"/>
	<path class="st25" d="M249.8,248.3c2.8,2.3,5,5.2,6.5,8.5c2,5,3.6-0.5,2-3.7S252.2,246.2,249.8,248.3z"/>
	<path class="st26" d="M270.9,301.8c0,2.3-1.3,4.2-2.9,4.2s-2.9-1.9-2.9-4.2s1.3-8.3,2.9-8.3S270.9,299.5,270.9,301.8z"/>
	<path class="st25" d="M251.3,262.6c-0.1,0.3-0.2,0.6-0.3,0.9c-0.3,1.5-0.6,4.6,0,4.7s2-2.8,2.2-4.2c0.1-0.3,0.1-0.6,0.1-0.9
		C252.7,262.9,252,262.7,251.3,262.6z"/>
	<path class="st25" d="M234.2,257c-0.1,0.3-0.2,0.5-0.2,0.8c-0.3,1.5-0.3,4.7,0.3,4.9s1.7-2.9,1.9-4.4c0.1-0.4,0.1-0.7,0.1-1.1
		C235.7,257,234.9,256.9,234.2,257z"/>
	<path class="st27" d="M251,263.5l1-1.9c1.6,0.3,3,1.1,4.1,2.4"/>
	<path class="st27" d="M234.2,257l1-1.2c0,0,0.4-0.2,2.8,0.9"/>
	<path class="st3" d="M230.4,284.1c0,0,1.7-3.1,3.9-3.1s3.9,5,3.9,5"/>
	<path class="st7" d="M158,417.4c-2.2-0.1-4.3-0.6-6.3-1.5c-1.1-0.4-1.7-1.7-1.3-2.8c0.4-1.1,1.7-1.7,2.8-1.3c0.1,0,0.1,0.1,0.2,0.1
		c2,0.9,4.6,1.4,5.3,1.1c1.3-1.4,3.2-10,0.7-14.1c-0.6-0.9-1.1-1.1-1.4-1.1c-1.4-0.2-3.6,1.3-4.3,2c-0.9,0.8-2.3,0.8-3.1-0.1
		s-0.8-2.3,0.1-3.1c0.4-0.4,4-3.6,7.9-3.1c1.9,0.3,3.6,1.5,4.6,3.2c3.7,6,1.2,17.6-1.7,19.8C160.4,417.1,159.2,417.4,158,417.4z"/>
	<path class="st8" d="M158,417.4c-2.2-0.1-4.3-0.6-6.3-1.5c-1.1-0.4-1.7-1.7-1.3-2.8c0.4-1.1,1.7-1.7,2.8-1.3c0.1,0,0.1,0.1,0.2,0.1
		c2,0.9,4.6,1.4,5.3,1.1c1.3-1.4,3.2-10,0.7-14.1c-0.6-0.9-1.1-1.1-1.4-1.1c-1.4-0.2-3.6,1.3-4.3,2c-0.9,0.8-2.3,0.8-3.1-0.1
		s-0.8-2.3,0.1-3.1c0.4-0.4,4-3.6,7.9-3.1c1.9,0.3,3.6,1.5,4.6,3.2c3.7,6,1.2,17.6-1.7,19.8C160.4,417.1,159.2,417.4,158,417.4z"/>
	<g class="st14">
		<path class="st1" d="M160.9,398.2c-0.5-1.3-1.7-2.2-3-2.4c-2.5-0.4-4.9,2.1-5.1,2.4c-0.5,0.6-0.6,1.4-0.2,2.1
			c0.4-0.1,0.8-0.3,1.1-0.5c0.8-0.7,2.9-2.2,4.3-2c0.4,0,0.9,0.2,1.4,1.1c2.5,4.1,0.6,12.7-0.7,14.1c-0.7,0.3-3.3-0.2-5.3-1.1
			c-0.2-0.1-0.5-0.2-0.8-0.2c0,0.6,0.4,1.1,0.8,1.3c1.3,0.7,2.7,1.1,4.1,1.2c0.8,0,1.6-0.2,2.2-0.8
			C161.7,411.7,163.4,402.8,160.9,398.2z"/>
		<path class="st23" d="M160.9,398.2c-0.5-1.3-1.7-2.2-3-2.4c-2.5-0.4-4.9,2.1-5.1,2.4c-0.5,0.6-0.6,1.4-0.2,2.1
			c0.4-0.1,0.8-0.3,1.1-0.5c0.8-0.7,2.9-2.2,4.3-2c0.4,0,0.9,0.2,1.4,1.1c2.5,4.1,0.6,12.7-0.7,14.1c-0.7,0.3-3.3-0.2-5.3-1.1
			c-0.2-0.1-0.5-0.2-0.8-0.2c0,0.6,0.4,1.1,0.8,1.3c1.3,0.7,2.7,1.1,4.1,1.2c0.8,0,1.6-0.2,2.2-0.8
			C161.7,411.7,163.4,402.8,160.9,398.2z"/>
	</g>
	<path class="st3" d="M158,417.4c-2.2-0.1-4.3-0.6-6.3-1.5c-1.1-0.4-1.7-1.7-1.3-2.8c0.4-1.1,1.7-1.7,2.8-1.3c0.1,0,0.1,0.1,0.2,0.1
		c2,0.9,4.6,1.4,5.3,1.1c1.3-1.4,3.2-10,0.7-14.1c-0.6-0.9-1.1-1.1-1.4-1.1c-1.4-0.2-3.6,1.3-4.3,2c-0.9,0.8-2.3,0.8-3.1-0.1
		s-0.8-2.3,0.1-3.1c0.4-0.4,4-3.6,7.9-3.1c1.9,0.3,3.6,1.5,4.6,3.2c3.7,6,1.2,17.6-1.7,19.8C160.4,417.1,159.2,417.4,158,417.4z"/>
	<rect x="130.1" y="391.6" class="st7" width="24.1" height="31.9"/>
	<rect x="130.1" y="391.6" class="st8" width="24.1" height="31.9"/>
	<g>
		<rect x="130.1" y="391.6" class="st1" width="9.9" height="31.9"/>
		<rect x="130.1" y="391.6" class="st23" width="9.9" height="31.9"/>
	</g>
	<rect x="130.1" y="391.6" class="st3" width="24.1" height="31.9"/>
	<g id="freepik--Device--inject-21">
		<path class="st4" d="M286.3,423.1H183.6l-3.4-56.5c-0.4-2.1,1.1-4.1,3.1-4.4c0.2,0,0.4-0.1,0.6-0.1h101.9c2.1,0,3.8,1.7,3.8,3.8
			c0,0.2,0,0.4-0.1,0.6L286.3,423.1z"/>
		<path class="st12" d="M188.7,363.5h96.5c2.1,0,3.8,1.6,3.8,3.7c0,0.2,0,0.4,0,0.6"/>
		<path class="st12" d="M181,366.9c0.2-2,1.8-3.5,3.8-3.5"/>
		<rect x="183.2" y="417.6" class="st5" width="103.6" height="5.5"/>
		<ellipse class="st5" cx="234.6" cy="392.8" rx="7.3" ry="4.4"/>
	</g>
	<g id="freepik--Table--inject-21">
		<rect x="57.2" y="422.4" class="st25" width="385.9" height="9.4"/>
	</g>
	<path class="st1" d="M157.4,75H343c6.3,0,11.3,5.1,11.3,11.3v106.5c0,6.3-5.1,11.3-11.3,11.3H157.4c-6.3,0-11.3-5.1-11.3-11.3V86.3
		C146,80.1,151.1,75,157.4,75z"/>
	<circle class="st6" cx="250.2" cy="118.7" r="30.9"/>
	<path class="st7" d="M249.9,124.4l-10.3,13.2c-0.7,1.1-1.9,1.8-3.3,1.8c-0.9,0-1.8-0.3-2.4-0.9c-0.7-0.6-1-1.5-1-2.4
		c0-1,0.4-2,1-2.7l11.7-14.5l-11-14.5c-0.5-0.7-0.8-1.5-0.8-2.4c0-1,0.4-2,1.2-2.7c0.7-0.7,1.7-1.2,2.7-1.2c1.3,0,2.5,0.7,3.2,1.8
		l9.9,13.1l10-12.9c0.7-1.2,2-2,3.4-2.1c0.9,0,1.7,0.4,2.3,1c0.6,0.6,1,1.4,1,2.3c0,0.8-0.3,1.5-0.8,2.1l-11.8,15.1l11.4,15
		c0.5,0.7,0.8,1.5,0.9,2.4c0,1-0.4,2-1.2,2.6c-0.7,0.7-1.7,1.1-2.7,1.1c-1.3,0-2.5-0.7-3.2-1.8L249.9,124.4z"/>
	<path class="st7" d="M309,181.8H191.3c-5,0-9-4-9-9l0,0c0-5,4-9,9-9H309c5,0,9,4,9,9l0,0C318,177.8,314,181.8,309,181.8z"/>
	<path class="st6" d="M207.4,175.7c-0.2,0-0.3-0.1-0.4-0.2c-0.1-0.1-0.2-0.3-0.2-0.4c0-0.1,0-0.3,0.1-0.4l0.9-1.4H206
		c-0.2,0-0.3-0.1-0.5-0.2c-0.2-0.2-0.2-0.6,0-0.9c0.1-0.1,0.3-0.2,0.5-0.2l1.8,0.1l-0.8-1.3c-0.1-0.1-0.1-0.3-0.1-0.4
		c0-0.2,0.1-0.3,0.2-0.4c0.1-0.1,0.3-0.2,0.4-0.2c0.2,0,0.4,0.1,0.5,0.3l0.9,1.6l0.8-1.5c0.1-0.2,0.3-0.4,0.6-0.4
		c0.2,0,0.3,0.1,0.4,0.2c0.1,0.1,0.2,0.3,0.2,0.4c0,0.1,0,0.3-0.1,0.4l-0.9,1.4l1.8-0.1c0.2,0,0.3,0.1,0.5,0.2
		c0.2,0.2,0.2,0.6,0,0.9c-0.1,0.1-0.3,0.2-0.5,0.2h-1.9l0.8,1.3c0.1,0.2,0.1,0.3,0.1,0.5c0,0.2-0.1,0.3-0.2,0.4
		c-0.1,0.1-0.3,0.2-0.4,0.2c-0.3,0-0.5-0.2-0.6-0.4l-0.8-1.5l-0.8,1.5C207.9,175.6,207.7,175.7,207.4,175.7z"/>
	<path class="st6" d="M216.6,175.7c-0.2,0-0.3-0.1-0.4-0.2c-0.1-0.1-0.2-0.3-0.2-0.4c0-0.1,0-0.3,0.1-0.4l0.9-1.4h-1.8
		c-0.2,0-0.3-0.1-0.5-0.2c-0.2-0.2-0.2-0.6,0-0.9c0.1-0.1,0.3-0.2,0.5-0.2l1.8,0.1l-0.9-1.4c-0.1-0.1-0.1-0.3-0.1-0.4
		c0-0.2,0.1-0.3,0.2-0.4c0.1-0.1,0.3-0.2,0.4-0.2c0.2,0,0.4,0.1,0.5,0.3l0.9,1.6l0.8-1.5c0.1-0.2,0.3-0.4,0.6-0.4
		c0.2,0,0.3,0.1,0.4,0.2c0.1,0.1,0.2,0.3,0.2,0.4c0,0.1,0,0.3-0.1,0.4l-0.9,1.4l1.8-0.1c0.2,0,0.3,0.1,0.5,0.2
		c0.2,0.2,0.2,0.6,0,0.9c-0.1,0.1-0.3,0.2-0.5,0.2H219l0.8,1.3c0.1,0.2,0.1,0.3,0.1,0.5c0,0.2-0.1,0.3-0.2,0.4
		c-0.1,0.1-0.3,0.2-0.4,0.2c-0.3,0-0.5-0.2-0.6-0.4l-0.8-1.5l-0.8,1.5C217.1,175.5,216.9,175.7,216.6,175.7z"/>
	<path class="st6" d="M225.8,175.7c-0.2,0-0.3-0.1-0.4-0.2c-0.1-0.1-0.2-0.3-0.2-0.4c0-0.1,0-0.3,0.1-0.4l0.9-1.4h-1.8
		c-0.2,0-0.3-0.1-0.5-0.2c-0.2-0.2-0.2-0.6,0-0.9c0.1-0.1,0.3-0.2,0.5-0.2l1.8,0.1l-0.9-1.4c-0.1-0.1-0.1-0.3-0.1-0.4
		c0-0.2,0.1-0.3,0.2-0.4c0.1-0.1,0.3-0.2,0.4-0.2c0.2,0,0.4,0.1,0.5,0.3l0.9,1.6l0.8-1.5c0.1-0.2,0.3-0.4,0.6-0.4
		c0.2,0,0.3,0.1,0.4,0.2c0.1,0.1,0.2,0.3,0.2,0.4c0,0.1,0,0.3-0.1,0.4l-0.9,1.4l1.8-0.1c0.2,0,0.3,0.1,0.5,0.2
		c0.2,0.2,0.2,0.6,0,0.9c-0.1,0.1-0.3,0.2-0.5,0.2h-1.9l0.8,1.3c0.1,0.2,0.1,0.3,0.1,0.5c0,0.2-0.1,0.3-0.2,0.4
		c-0.1,0.1-0.3,0.2-0.4,0.2c-0.3,0-0.5-0.2-0.6-0.4l-0.8-1.5l-0.8,1.5C226.3,175.5,226,175.7,225.8,175.7z"/>
	<path class="st6" d="M235,175.7c-0.2,0-0.3-0.1-0.4-0.2c-0.1-0.1-0.2-0.3-0.2-0.4c0-0.1,0-0.3,0.1-0.4l0.9-1.4h-1.8
		c-0.2,0-0.3-0.1-0.5-0.2c-0.2-0.2-0.2-0.6,0-0.9c0.1-0.1,0.3-0.2,0.5-0.2l1.8,0.1l-0.9-1.4c-0.1-0.1-0.1-0.3-0.1-0.4
		c0-0.2,0.1-0.3,0.2-0.4c0.1-0.1,0.3-0.2,0.4-0.2c0.2,0,0.4,0.1,0.5,0.3l0.9,1.6l0.8-1.5c0.1-0.2,0.3-0.4,0.6-0.4
		c0.2,0,0.3,0.1,0.4,0.2c0.1,0.1,0.2,0.3,0.2,0.4c0,0.1,0,0.3-0.1,0.4l-0.9,1.4l1.8-0.1c0.2,0,0.3,0.1,0.5,0.2
		c0.2,0.2,0.2,0.6,0,0.9c-0.1,0.1-0.3,0.2-0.5,0.2h-1.9l0.8,1.3c0.1,0.2,0.1,0.3,0.1,0.5c0,0.2-0.1,0.3-0.2,0.4
		c-0.1,0.1-0.3,0.2-0.4,0.2c-0.3,0-0.5-0.2-0.6-0.4l-0.8-1.5l-0.8,1.5C235.5,175.5,235.3,175.7,235,175.7z"/>
	<path class="st6" d="M244.1,175.7c-0.2,0-0.3-0.1-0.4-0.2c-0.1-0.1-0.2-0.3-0.2-0.4c0-0.1,0-0.3,0.1-0.4l0.9-1.4h-1.8
		c-0.2,0-0.3-0.1-0.5-0.2c-0.2-0.2-0.2-0.6,0-0.9c0.1-0.1,0.3-0.2,0.5-0.2l1.8,0.1l-0.9-1.4c-0.1-0.1-0.1-0.3-0.1-0.4
		c0-0.2,0.1-0.3,0.2-0.4c0.1-0.1,0.3-0.2,0.4-0.2c0.2,0,0.4,0.1,0.5,0.3l0.9,1.6l0.8-1.5c0.1-0.2,0.3-0.4,0.6-0.4
		c0.2,0,0.3,0.1,0.4,0.2c0.1,0.1,0.2,0.3,0.2,0.4c0,0.1,0,0.3-0.1,0.4l-0.9,1.4l1.8-0.1c0.2,0,0.3,0.1,0.5,0.2
		c0.2,0.2,0.2,0.6,0,0.9c-0.1,0.1-0.3,0.2-0.5,0.2h-1.9l0.8,1.3c0.1,0.2,0.1,0.3,0.1,0.5c0,0.2-0.1,0.3-0.2,0.4
		c-0.1,0.1-0.3,0.2-0.4,0.2c-0.3,0-0.5-0.2-0.6-0.4l-0.8-1.5l-0.8,1.5C244.6,175.5,244.4,175.7,244.1,175.7z"/>
	<path class="st6" d="M253.3,175.7c-0.2,0-0.3-0.1-0.4-0.2c-0.1-0.1-0.2-0.3-0.2-0.4c0-0.1,0-0.3,0.1-0.4l0.9-1.4h-1.8
		c-0.2,0-0.3-0.1-0.5-0.2c-0.2-0.2-0.2-0.6,0-0.9c0.1-0.1,0.3-0.2,0.5-0.2l1.8,0.1l-0.9-1.4c-0.1-0.1-0.1-0.3-0.1-0.4
		c0-0.2,0.1-0.3,0.2-0.4c0.1-0.1,0.3-0.2,0.4-0.2c0.2,0,0.4,0.1,0.5,0.3l0.9,1.6l0.8-1.5c0.1-0.2,0.3-0.4,0.6-0.4
		c0.2,0,0.3,0.1,0.4,0.2c0.1,0.1,0.2,0.3,0.2,0.4c0,0.1,0,0.3-0.1,0.4l-0.9,1.4l1.8-0.1c0.2,0,0.3,0.1,0.5,0.2
		c0.2,0.2,0.2,0.6,0,0.9c-0.1,0.1-0.3,0.2-0.5,0.2h-1.9l0.8,1.3c0.1,0.2,0.1,0.3,0.1,0.5c0,0.2-0.1,0.3-0.2,0.4
		c-0.1,0.1-0.3,0.2-0.4,0.2c-0.3,0-0.5-0.2-0.6-0.4l-0.8-1.5l-0.8,1.5C253.8,175.5,253.6,175.7,253.3,175.7z"/>
	<path class="st6" d="M262.5,175.7c-0.2,0-0.3-0.1-0.4-0.2c-0.1-0.1-0.2-0.3-0.2-0.4c0-0.1,0-0.3,0.1-0.4l0.9-1.4h-1.8
		c-0.2,0-0.3-0.1-0.5-0.2c-0.2-0.2-0.2-0.6,0-0.9c0.1-0.1,0.3-0.2,0.5-0.2l1.8,0.1l-0.9-1.3c-0.1-0.1-0.1-0.3-0.1-0.4
		c0-0.2,0.1-0.3,0.2-0.4c0.1-0.1,0.3-0.2,0.4-0.2c0.2,0,0.4,0.1,0.5,0.3l0.9,1.6l0.8-1.5c0.1-0.2,0.3-0.4,0.6-0.4
		c0.2,0,0.3,0.1,0.4,0.2c0.1,0.1,0.2,0.3,0.2,0.4c0,0.1,0,0.3-0.1,0.4l-0.9,1.4l1.8-0.1c0.2,0,0.3,0.1,0.5,0.2
		c0.2,0.2,0.2,0.6,0,0.9c-0.1,0.1-0.3,0.2-0.5,0.2h-1.9l0.8,1.3c0.1,0.2,0.1,0.3,0.1,0.5c0,0.2-0.1,0.3-0.2,0.4
		c-0.1,0.1-0.3,0.2-0.4,0.2c-0.3,0-0.5-0.2-0.6-0.4l-0.8-1.5l-0.8,1.5C263,175.6,262.7,175.7,262.5,175.7z"/>
	<path class="st6" d="M271.7,175.7c-0.2,0-0.3-0.1-0.4-0.2c-0.1-0.1-0.2-0.3-0.2-0.4c0-0.1,0-0.3,0.1-0.4l0.9-1.4h-1.8
		c-0.2,0-0.3-0.1-0.5-0.2c-0.2-0.2-0.2-0.6,0-0.9c0.1-0.1,0.3-0.2,0.5-0.2l1.8,0.1l-0.9-1.4c-0.1-0.1-0.1-0.3-0.1-0.4
		c0-0.3,0.3-0.6,0.6-0.6c0,0,0,0,0,0c0.2,0,0.4,0.1,0.5,0.3l0.9,1.6l0.8-1.5c0.1-0.2,0.3-0.4,0.6-0.4c0.2,0,0.3,0.1,0.4,0.2
		c0.1,0.1,0.2,0.3,0.2,0.4c0,0.1,0,0.3-0.1,0.4l-0.9,1.4l1.8-0.1c0.2,0,0.3,0.1,0.5,0.2c0.2,0.2,0.2,0.6,0,0.9
		c-0.1,0.1-0.3,0.2-0.5,0.2h-1.9l0.8,1.3c0.1,0.2,0.1,0.3,0.1,0.5c0,0.3-0.2,0.6-0.6,0.6c0,0,0,0,0,0c-0.3,0-0.5-0.2-0.6-0.4
		l-0.8-1.5l-0.8,1.5C272.2,175.5,271.9,175.7,271.7,175.7z"/>
	<path class="st6" d="M280.9,175.7c-0.2,0-0.3-0.1-0.4-0.2c-0.1-0.1-0.2-0.3-0.2-0.4c0-0.1,0-0.3,0.1-0.4l0.9-1.4h-1.8
		c-0.2,0-0.3-0.1-0.5-0.2c-0.2-0.2-0.2-0.6,0-0.9c0.1-0.1,0.3-0.2,0.5-0.2l1.8,0.1l-0.9-1.4c-0.1-0.1-0.1-0.3-0.1-0.4
		c0-0.3,0.3-0.6,0.6-0.6c0,0,0,0,0,0c0.2,0,0.4,0.1,0.5,0.3l0.9,1.6l0.8-1.5c0.1-0.2,0.3-0.4,0.6-0.4c0.2,0,0.3,0.1,0.4,0.2
		c0.1,0.1,0.2,0.3,0.2,0.4c0,0.1,0,0.3-0.1,0.4l-0.9,1.4l1.8-0.1c0.2,0,0.3,0.1,0.5,0.2c0.2,0.2,0.2,0.6,0,0.9
		c-0.1,0.1-0.3,0.2-0.5,0.2h-1.9l0.8,1.3c0.1,0.2,0.1,0.3,0.1,0.5c0,0.3-0.2,0.6-0.6,0.6c0,0,0,0,0,0c-0.3,0-0.5-0.2-0.6-0.4
		l-0.8-1.5l-0.8,1.5C281.3,175.5,281.1,175.7,280.9,175.7z"/>
	<path class="st6" d="M290,175.7c-0.2,0-0.3-0.1-0.4-0.2c-0.1-0.1-0.2-0.3-0.2-0.4c0-0.1,0-0.3,0.1-0.4l0.9-1.4h-1.8
		c-0.2,0-0.3-0.1-0.5-0.2c-0.2-0.2-0.2-0.6,0-0.9c0.1-0.1,0.3-0.2,0.5-0.2l1.8,0.1l-0.9-1.4c-0.1-0.1-0.1-0.3-0.1-0.4
		c0-0.2,0.1-0.3,0.2-0.4c0.1-0.1,0.3-0.2,0.4-0.2c0.2,0,0.4,0.1,0.5,0.3l0.9,1.6l0.8-1.5c0.1-0.2,0.3-0.4,0.6-0.4
		c0.2,0,0.3,0.1,0.4,0.2c0.1,0.1,0.2,0.3,0.2,0.4c0,0.1,0,0.3-0.1,0.4l-0.9,1.4l1.8-0.1c0.2,0,0.3,0.1,0.5,0.2
		c0.2,0.2,0.2,0.6,0,0.9c-0.1,0.1-0.3,0.2-0.5,0.2h-1.9l0.8,1.3c0.1,0.2,0.1,0.3,0.1,0.5c0,0.2-0.1,0.3-0.2,0.4
		c-0.1,0.1-0.3,0.2-0.4,0.2c-0.3,0-0.5-0.2-0.6-0.4l-0.8-1.5l-0.8,1.5C290.5,175.5,290.3,175.7,290,175.7z"/>
	<line class="st28" x1="321.5" y1="197.8" x2="333.7" y2="197.8"/>
	<path class="st28" d="M151.8,107.8V189c0,4.9,4,8.9,8.9,8.9h149.2"/>
	<line class="st28" x1="151.8" y1="86.2" x2="151.8" y2="98.4"/>
</g>
</svg>
